<?xml version="1.0" encoding="UTF-8"?>
<svg version="1.1" xmlns="http://www.w3.org/2000/svg" width="150" height="150">
<path d="M0 0 C2.23886107 0.02685657 4.47271334 0.00006856 6.71142578 -0.03173828 C25.82974499 -0.07894045 41.64148359 7.27264409 55.53173828 20.44482422 C71.81247041 36.72555635 78.03881834 55.23996568 78.0534668 77.93041992 C77.82650417 96.57492933 71.25898586 112.77021756 58.73876953 126.65185547 C57.85125 127.67859375 57.85125 127.67859375 56.94580078 128.72607422 C45.64707327 140.98844587 28.56478216 149.56640637 11.91821289 150.87329102 C-11.5119348 151.76762969 -31.36448119 147.79340692 -49.26123047 131.65185547 C-49.94572266 131.06017578 -50.63021484 130.46849609 -51.33544922 129.85888672 C-62.06255201 119.97477825 -71.62113152 104.03184253 -72.45410156 89.22290039 C-72.54443816 85.55605569 -72.58337861 81.88826624 -72.61132812 78.22045898 C-72.62772532 76.65259795 -72.65479471 75.08480643 -72.69335938 73.51733398 C-73.19207188 53.08096295 -66.70947449 36.87645181 -52.46826172 21.85888672 C-37.72491398 7.11553898 -20.75330645 -0.29485572 0 0 Z " fill="#080808" transform="translate(72.26123046875,-0.65185546875)"/>
<path d="M0 0 C8.17858134 0.52765041 16.78885583 2.23250899 23 8 C23.94140625 10.33984375 23.94140625 10.33984375 24.5625 12.9375 C25.46716272 16.7288612 25.46716272 16.7288612 27.65234375 19.87890625 C29.69710138 23.09717695 28.73191662 25.33283226 28 29 C27.80967714 30.39295225 27.63158918 31.78762286 27.46484375 33.18359375 C27.37783203 33.88291016 27.29082031 34.58222656 27.20117188 35.30273438 C27.0706543 36.35944336 27.0706543 36.35944336 26.9375 37.4375 C26.84662109 38.16904297 26.75574219 38.90058594 26.66210938 39.65429688 C26.44083632 41.43612723 26.22033671 43.21805361 26 45 C26.66 45 27.32 45 28 45 C26.24933204 48.88609811 23.81675994 52.27812258 21.375 55.75 C20.95476562 56.35199219 20.53453125 56.95398438 20.1015625 57.57421875 C19.07006863 59.05113043 18.03535421 60.52579194 17 62 C16.01 61.505 16.01 61.505 15 61 C15.495 60.01 15.495 60.01 16 59 C13.08214991 60.14629825 11.94304939 61.07474768 10 63.625 C9.01 64.800625 9.01 64.800625 8 66 C6.68 66 5.36 66 4 66 C3.67 67.98 3.34 69.96 3 72 C2.01 72 1.02 72 0 72 C0 71.01 0 70.02 0 69 C-0.66 69 -1.32 69 -2 69 C-2 68.34 -2 67.68 -2 67 C-2.66 67 -3.32 67 -4 67 C-3.2236068 70.0745356 -3.2236068 70.0745356 -1 72 C-2.875 71.75 -2.875 71.75 -5 71 C-6.125 69 -6.125 69 -7 67 C-7.66 66.67 -8.32 66.34 -9 66 C-7.68 65.01 -6.36 64.02 -5 63 C-6.65 63 -8.3 63 -10 63 C-9.67 63.66 -9.34 64.32 -9 65 C-10.11375 65.12375 -11.2275 65.2475 -12.375 65.375 C-16.03103677 65.6465813 -16.03103677 65.6465813 -18 68 C-18 65.03 -18 62.06 -18 59 C-18.66 59 -19.32 59 -20 59 C-19.37027762 55.33229262 -17.77360017 52.94282049 -15.625 49.9375 C-15.01914062 49.08027344 -14.41328125 48.22304687 -13.7890625 47.33984375 C-12 45 -12 45 -9 42 C-4.05 43.98 -4.05 43.98 1 46 C1.33 45.01 1.66 44.02 2 43 C-0.31 42.34 -2.62 41.68 -5 41 C-4.875 38.3125 -4.875 38.3125 -4 35 C-2.01739574 33.31267723 -0.0167658 31.64633943 2 30 C3.41590372 26.84498835 3.41590372 26.84498835 4 24 C2.35 24.33 0.7 24.66 -1 25 C-1 24.01 -1 23.02 -1 22 C-1.99 22.33 -2.98 22.66 -4 23 C-4 23.66 -4 24.32 -4 25 C-7.21182149 26.90608098 -9.53882603 27.22266247 -13.25 27.125 C-14.14203125 27.10695313 -15.0340625 27.08890625 -15.953125 27.0703125 C-16.62859375 27.04710938 -17.3040625 27.02390625 -18 27 C-17.62960983 20.57990379 -17.62960983 20.57990379 -14.625 17.8125 C-13.325625 16.9153125 -13.325625 16.9153125 -12 16 C-11.505 15.278125 -11.01 14.55625 -10.5 13.8125 C-8.53697925 11.44051659 -6.99094626 11.32334554 -4 11 C-4.33 11.99 -4.66 12.98 -5 14 C-4.01 14.33 -3.02 14.66 -2 15 C-2 14.34 -2 13.68 -2 13 C-1.34 13 -0.68 13 0 13 C0 13.99 0 14.98 0 16 C1.65 16 3.3 16 5 16 C5 16.99 5 17.98 5 19 C5.33 18.01 5.66 17.02 6 16 C7.32 16.33 8.64 16.66 10 17 C9.67 18.65 9.34 20.3 9 22 C9.99 22 10.98 22 12 22 C12 21.34 12 20.68 12 20 C12.66 20 13.32 20 14 20 C14 20.66 14 21.32 14 22 C14.7425 21.938125 15.485 21.87625 16.25 21.8125 C19.57225967 22.03901771 20.6256736 22.70481781 23 25 C23.609375 27.48046875 23.609375 27.48046875 23.75 30.1875 C23.80671875 31.08855469 23.8634375 31.98960938 23.921875 32.91796875 C23.94765625 33.60503906 23.9734375 34.29210937 24 35 C25.87038691 33.12961309 25.51649933 30.14347149 25.75 27.625 C25.86859375 26.46226563 25.9871875 25.29953125 26.109375 24.1015625 C26.32654653 21.04021754 26.32654653 21.04021754 24.62109375 19.41015625 C24.08613281 18.94480469 23.55117187 18.47945312 23 18 C22.05078125 15.51953125 22.05078125 15.51953125 21.3125 12.8125 C21.06113281 11.91144531 20.80976562 11.01039062 20.55078125 10.08203125 C20.36902344 9.39496094 20.18726563 8.70789062 20 8 C17.525 7.505 17.525 7.505 15 7 C15 6.34 15 5.68 15 5 C9.72 4.01 4.44 3.02 -1 2 C-0.67 1.34 -0.34 0.68 0 0 Z " fill="#0C0C0C" transform="translate(73,40)"/>
<path d="M0 0 C5.13906716 0.14124286 10.26974602 1.5048523 15.0625 3.3125 C15.5575 4.3025 15.5575 4.3025 16.0625 5.3125 C16.68125 5.374375 17.3 5.43625 17.9375 5.5 C20.0625 6.3125 20.0625 6.3125 21.625 9.5625 C21.86089844 10.19285156 22.09679687 10.82320312 22.33984375 11.47265625 C23.08339986 13.51777897 23.08339986 13.51777897 24.6875 16 C27.41987634 20.59536021 27.01439504 23.83076447 26.125 29.0625 C25.93035156 30.23296875 25.73570313 31.4034375 25.53515625 32.609375 C25.30119141 33.94742188 25.30119141 33.94742188 25.0625 35.3125 C23.0625 33.3125 23.0625 33.3125 22.8671875 30.9296875 C22.89039063 30.02476563 22.91359375 29.11984375 22.9375 28.1875 C22.95554688 27.27742188 22.97359375 26.36734375 22.9921875 25.4296875 C23.01539063 24.73101562 23.03859375 24.03234375 23.0625 23.3125 C20.0925 22.3225 17.1225 21.3325 14.0625 20.3125 C14.0625 19.6525 14.0625 18.9925 14.0625 18.3125 C13.4025 18.3125 12.7425 18.3125 12.0625 18.3125 C12.0625 18.9725 12.0625 19.6325 12.0625 20.3125 C11.0725 20.3125 10.0825 20.3125 9.0625 20.3125 C9.0625 18.6625 9.0625 17.0125 9.0625 15.3125 C8.0725 14.9825 7.0825 14.6525 6.0625 14.3125 C6.5575 15.7975 6.5575 15.7975 7.0625 17.3125 C6.4025 17.3125 5.7425 17.3125 5.0625 17.3125 C5.0625 16.3225 5.0625 15.3325 5.0625 14.3125 C4.4025 14.3125 3.7425 14.3125 3.0625 14.3125 C2.7325 15.6325 2.4025 16.9525 2.0625 18.3125 C2.0625 16.9925 2.0625 15.6725 2.0625 14.3125 C1.0725 14.6425 0.0825 14.9725 -0.9375 15.3125 C-0.6075 13.9925 -0.2775 12.6725 0.0625 11.3125 C-0.5975 11.3125 -1.2575 11.3125 -1.9375 11.3125 C-1.9375 11.9725 -1.9375 12.6325 -1.9375 13.3125 C-3.2575 12.9825 -4.5775 12.6525 -5.9375 12.3125 C-5.2775 11.9825 -4.6175 11.6525 -3.9375 11.3125 C-3.9375 10.6525 -3.9375 9.9925 -3.9375 9.3125 C-8.64592624 11.42576526 -8.64592624 11.42576526 -11.9375 15.3125 C-12.5975 15.3125 -13.2575 15.3125 -13.9375 15.3125 C-14.2675 16.3025 -14.5975 17.2925 -14.9375 18.3125 C-15.5975 18.3125 -16.2575 18.3125 -16.9375 18.3125 C-17.2675 20.6225 -17.5975 22.9325 -17.9375 25.3125 C-16.35382253 25.17045259 -14.77056682 25.02369847 -13.1875 24.875 C-12.30578125 24.79378906 -11.4240625 24.71257812 -10.515625 24.62890625 C-8.24399548 24.35011535 -6.13898177 23.92459423 -3.9375 23.3125 C-3.9375 22.6525 -3.9375 21.9925 -3.9375 21.3125 C-1.9375 19.6875 -1.9375 19.6875 0.0625 18.3125 C0.5575 19.7975 0.5575 19.7975 1.0625 21.3125 C2.0525 21.3125 3.0425 21.3125 4.0625 21.3125 C4.5575 22.3025 4.5575 22.3025 5.0625 23.3125 C3.36800354 27.41496511 1.47379171 30.45141663 -1.9375 33.3125 C-2.5975 33.3125 -3.2575 33.3125 -3.9375 33.3125 C-3.9375 35.2925 -3.9375 37.2725 -3.9375 39.3125 C-1.2975 39.6425 1.3425 39.9725 4.0625 40.3125 C3.0725 41.6325 2.0825 42.9525 1.0625 44.3125 C-2.63650008 43.42473998 -6.28300461 42.36668136 -9.9375 41.3125 C-10.2675 41.9725 -10.5975 42.6325 -10.9375 43.3125 C-13.27083333 43.64583333 -15.60416667 43.97916667 -17.9375 44.3125 C-18.2675 44.9725 -18.5975 45.6325 -18.9375 46.3125 C-18.9375 45.3225 -18.9375 44.3325 -18.9375 43.3125 C-17.9475 42.8175 -17.9475 42.8175 -16.9375 42.3125 C-17.2675 39.6725 -17.5975 37.0325 -17.9375 34.3125 C-16.9475 34.3125 -15.9575 34.3125 -14.9375 34.3125 C-16.5875 33.6525 -18.2375 32.9925 -19.9375 32.3125 C-19.9375 31.3225 -19.9375 30.3325 -19.9375 29.3125 C-20.5975 29.3125 -21.2575 29.3125 -21.9375 29.3125 C-22.06125 29.869375 -22.185 30.42625 -22.3125 31 C-23.82497151 36.59614457 -26.13745506 40.01244915 -29.9375 44.3125 C-30.9275 43.9825 -31.9175 43.6525 -32.9375 43.3125 C-32.2775 41.9925 -31.6175 40.6725 -30.9375 39.3125 C-31.9275 39.3125 -32.9175 39.3125 -33.9375 39.3125 C-34.18923326 33.66360568 -32.6469623 29.23879509 -29.9375 24.3125 C-28.31164641 22.56460898 -26.63596935 21.18057297 -24.734375 19.7421875 C-22.82952436 18.22658895 -21.3683305 16.61860055 -19.8125 14.75 C-15.29639938 9.34021193 -11.09671636 5.68263725 -4.9375 2.3125 C-2.9375 0.3125 -2.9375 0.3125 0 0 Z " fill="#0A0A0A" transform="translate(72.9375,41.6875)"/>
<path d="M0 0 C1.32 0.33 2.64 0.66 4 1 C-8.09766368 21.46100031 -24.08852274 34.64221155 -47 41 C-47.66 41 -48.32 41 -49 41 C-49.53625 40.071875 -50.0725 39.14375 -50.625 38.1875 C-53.74534653 33.99966651 -56.07760734 33.4767178 -61 32 C-57.30451439 27.27740234 -52.23318899 25.91253132 -46.8125 23.875 C-38.69774697 20.70441436 -31.2832997 17.09974715 -23.86938477 12.54077148 C-16.45920911 7.99261785 -8.68056246 3.40979938 0 2 C0 1.34 0 0.68 0 0 Z " fill="#050505" transform="translate(139,108)"/>
<path d="M0 0 C0.495 0.99 0.495 0.99 1 2 C0.22265625 4.1640625 0.22265625 4.1640625 -0.9375 6.625 C-1.50791016 7.85089844 -1.50791016 7.85089844 -2.08984375 9.1015625 C-2.39019531 9.72804688 -2.69054687 10.35453125 -3 11 C-0.2160817 9.60804085 -0.02101003 7.84424221 1 5 C3 7 3 7 3 10 C5.86724686 9.42655063 6.8614515 9.1385485 9 7 C9 8.32 9 9.64 9 11 C10.32 10.01 11.64 9.02 13 8 C13.66 9.65 14.32 11.3 15 13 C16.32 9.7 17.64 6.4 19 3 C19.95904856 6.83619425 19.91892116 8.32431536 19 12 C19.99 9.03 20.98 6.06 22 3 C22.66 3 23.32 3 24 3 C23.34 5.64 22.68 8.28 22 11 C22.66 11 23.32 11 24 11 C23.9278125 12.12019531 23.855625 13.24039062 23.78125 14.39453125 C23.68745044 15.86718434 23.59370317 17.33984077 23.5 18.8125 C23.45230469 19.55048828 23.40460938 20.28847656 23.35546875 21.04882812 C23.16609387 24.03824588 23 27.00374574 23 30 C28.84647559 23.95804954 32.96798655 17.35321601 37 10 C37.99 10.495 37.99 10.495 39 11 C38.01 12.98 37.02 14.96 36 17 C36.99 17 37.98 17 39 17 C39.66 15.35 40.32 13.7 41 12 C41.99 12.99 41.99 12.99 43 14 C43.66 14 44.32 14 45 14 C45 14.66 45 15.32 45 16 C44.39414063 16.24492187 43.78828125 16.48984375 43.1640625 16.7421875 C34.5599705 20.58093624 27.04631773 26.94839114 22 35 C21.64131841 37.12972821 21.64131841 37.12972821 21.8125 39.25 C21.874375 40.4875 21.93625 41.725 22 43 C21.34 43 20.68 43 20 43 C18.98511927 39.95535782 18.79816054 37.56610145 18.625 34.375 C18.09409586 27.4142568 16.45796187 21.1007388 13 15 C12.34 14.67 11.68 14.34 11 14 C11 13.34 11 12.68 11 12 C3.07463193 11.35507855 -0.87557596 11.8963133 -7 17 C-7.99 17 -8.98 17 -10 17 C-10 17.66 -10 18.32 -10 19 C-11.66080849 20.67250432 -13.32864513 22.33803476 -15 24 C-16.55069978 26.06395957 -18.04005723 28.12508434 -19.5 30.25 C-27.19110345 41.22946824 -35.44237636 51.80271629 -43.73046875 62.3359375 C-44.88208386 63.84543916 -45.94682712 65.42024068 -47 67 C-47.66 66.67 -48.32 66.34 -49 66 C-46.58715971 62.61312377 -44.17165357 59.22823682 -41.75 55.84765625 C-40.03037143 53.4465408 -38.32169842 51.03845617 -36.625 48.62109375 C-35.92375 47.63238281 -35.2225 46.64367188 -34.5 45.625 C-33.8709375 44.73039062 -33.241875 43.83578125 -32.59375 42.9140625 C-32.0678125 42.28242187 -31.541875 41.65078125 -31 41 C-30.34 41 -29.68 41 -29 41 C-28.731875 40.2575 -28.46375 39.515 -28.1875 38.75 C-27 36 -27 36 -25.3125 34.125 C-23.68880053 31.93708864 -23.68880053 31.93708864 -24.125 28.625 C-25.94013251 21.10516532 -30.21291787 15.90188207 -35 10 C-33.6875 8.5 -33.6875 8.5 -32 7 C-31.01 7 -30.02 7 -29 7 C-28.34 8.32 -27.68 9.64 -27 11 C-26.34 9.02 -25.68 7.04 -25 5 C-23.89629957 8.3111013 -24.07326359 10.24748949 -24.4375 13.6875 C-24.53933594 14.68136719 -24.64117187 15.67523438 -24.74609375 16.69921875 C-24.82988281 17.45847656 -24.91367187 18.21773437 -25 19 C-24.34 19 -23.68 19 -23 19 C-22.67 16.69 -22.34 14.38 -22 12 C-20.68 11.67 -19.36 11.34 -18 11 C-18.309375 11.886875 -18.61875 12.77375 -18.9375 13.6875 C-20.14585766 17.24069818 -20.14585766 17.24069818 -21 22 C-19.35 18.7 -17.7 15.4 -16 12 C-14.86356034 15.40931897 -15.13252236 16.00335456 -16.4375 19.1875 C-16.72496094 19.90292969 -17.01242188 20.61835938 -17.30859375 21.35546875 C-17.53675781 21.89816406 -17.76492187 22.44085937 -18 23 C-17.34 23 -16.68 23 -16 23 C-15.81824219 22.40832031 -15.63648438 21.81664063 -15.44921875 21.20703125 C-14.04332943 16.787492 -12.62472819 12.87459875 -10 9 C-9 11 -9 11 -9 14 C-7.01763346 13.38405698 -7.01763346 13.38405698 -5 12 C-3.68723889 9.41277292 -3.68723889 9.41277292 -2.8125 6.4375 C-1.05598456 1.05598456 -1.05598456 1.05598456 0 0 Z " fill="#CECECE" transform="translate(74,0)"/>
<path d="M0 0 C-0.33 0.99 -0.66 1.98 -1 3 C-0.01 3.33 0.98 3.66 2 4 C2 3.34 2 2.68 2 2 C2.66 2 3.32 2 4 2 C4 2.99 4 3.98 4 5 C5.65 5 7.3 5 9 5 C9 5.99 9 6.98 9 8 C9.33 7.01 9.66 6.02 10 5 C11.32 5.33 12.64 5.66 14 6 C13.67 7.65 13.34 9.3 13 11 C13.99 11 14.98 11 16 11 C16 10.34 16 9.68 16 9 C16.66 9 17.32 9 18 9 C18 9.66 18 10.32 18 11 C18.7425 10.938125 19.485 10.87625 20.25 10.8125 C23.56826807 11.03874555 24.61358568 11.72722446 27 14 C27.71484375 16.33984375 27.71484375 16.33984375 27.9375 18.9375 C28.02902344 19.79214844 28.12054688 20.64679688 28.21484375 21.52734375 C27.95459184 24.52260662 26.97464667 25.78942152 25 28 C22.03824877 27.38722388 20.61941217 26.74627478 18 25 C17.05078125 22.3984375 17.05078125 22.3984375 16.3125 19.375 C16.06113281 18.37210938 15.80976562 17.36921875 15.55078125 16.3359375 C15.36902344 15.56507812 15.18726562 14.79421875 15 14 C12.54608431 17.68087353 12.77197241 20.44355588 12.875 24.6875 C12.88402344 25.38939453 12.89304687 26.09128906 12.90234375 26.81445312 C12.92586296 28.54311525 12.96173287 30.27160145 13 32 C10.525 32.495 10.525 32.495 8 33 C8 32.34 8 31.68 8 31 C5.36 31 2.72 31 0 31 C-0.8125 28.8125 -0.8125 28.8125 -1 26 C1.25 23.5 1.25 23.5 4 21 C5.79999401 18.30000899 6.97295391 16.08113827 8 13 C6.35 13.33 4.7 13.66 3 14 C3 13.01 3 12.02 3 11 C2.01 11.33 1.02 11.66 0 12 C0 12.66 0 13.32 0 14 C-3.21182149 15.90608098 -5.53882603 16.22266247 -9.25 16.125 C-10.14203125 16.10695313 -11.0340625 16.08890625 -11.953125 16.0703125 C-12.62859375 16.04710938 -13.3040625 16.02390625 -14 16 C-13.62960983 9.57990379 -13.62960983 9.57990379 -10.625 6.8125 C-9.325625 5.9153125 -9.325625 5.9153125 -8 5 C-7.46375 4.278125 -6.9275 3.55625 -6.375 2.8125 C-4.56594224 0.42783296 -2.95757296 0 0 0 Z " fill="#3A3A3A" transform="translate(69,51)"/>
<path d="M0 0 C0.99 0 1.98 0 3 0 C4.64226949 2.09895953 6.04453539 4.11812527 7.4375 6.375 C8.03365112 7.32705322 8.03365112 7.32705322 8.6418457 8.29833984 C15.10144491 18.84055464 15.10144491 18.84055464 16 24 C14.8652745 27.27105228 12.79178554 29.57101866 10.5 32.125 C9.58734375 33.14980469 9.58734375 33.14980469 8.65625 34.1953125 C7.46695076 35.49119988 6.24373566 36.75626434 5 38 C7.475 37.505 7.475 37.505 10 37 C8.23205273 38.95404698 6.66195132 40.20121946 4.375 41.5625 C1.88809625 42.77912906 1.88809625 42.77912906 1 45 C1.66 45 2.32 45 3 45 C2.67 46.32 2.34 47.64 2 49 C1.34 49 0.68 49 0 49 C-0.12117187 49.54527344 -0.24234375 50.09054688 -0.3671875 50.65234375 C-1.578125 56.1015625 -2.7890625 61.55078125 -4 67 C-1.03 64.03 1.94 61.06 5 58 C5.66 58.33 6.32 58.66 7 59 C6.50628906 59.48210937 6.01257813 59.96421875 5.50390625 60.4609375 C4.86324219 61.09257813 4.22257813 61.72421875 3.5625 62.375 C2.92441406 63.00148437 2.28632813 63.62796875 1.62890625 64.2734375 C-0.07882176 65.91723061 -0.07882176 65.91723061 -1 68 C0.98 67.01 0.98 67.01 3 66 C1.50871999 69.79598549 -0.65733441 71.71720399 -4 74 C-4.99 74 -5.98 74 -7 74 C-8.70532323 75.94009522 -8.70532323 75.94009522 -10 78 C-9.38169198 72.73751171 -8.19749633 67.92684036 -6.625 62.875 C-4.73383264 56.63571177 -3.07007043 50.40001517 -1.67578125 44.02734375 C-1.17534805 41.78551871 -0.57474829 39.56554585 0.078125 37.36328125 C1.42363612 32.0300377 1.17734563 26.71386778 1.0625 21.25 C1.02800663 19.21361359 0.99788045 17.17714732 0.97265625 15.140625 C0.95468994 14.24891602 0.93672363 13.35720703 0.91821289 12.43847656 C1 10 1 10 1.56030273 7.88183594 C2.24586971 4.94771585 1.05831073 2.73915717 0 0 Z " fill="#373737" transform="translate(131,26)"/>
<path d="M0 0 C0.33 0.66 0.66 1.32 1 2 C0.67 2.66 0.34 3.32 0 4 C0.99 4.33 1.98 4.66 3 5 C2.67 5.66 2.34 6.32 2 7 C3.65 6.34 5.3 5.68 7 5 C7 6.32 7 7.64 7 9 C9.83967231 9 12.23735711 8.59732819 15 8 C15 6.02 15 4.04 15 2 C15.66 2 16.32 2 17 2 C17 3.98 17 5.96 17 8 C18.98 8 20.96 8 23 8 C23 8.99 23 9.98 23 11 C22.34 11 21.68 11 21 11 C21.20625 11.598125 21.4125 12.19625 21.625 12.8125 C22 15 22 15 20 18 C19.01 18 18.02 18 17 18 C15.55475116 22.42605006 15.55475116 22.42605006 15 27 C14.01 27 13.02 27 12 27 C12 26.01 12 25.02 12 24 C11.34 24 10.68 24 10 24 C10 23.34 10 22.68 10 22 C9.34 22 8.68 22 8 22 C8.7763932 25.0745356 8.7763932 25.0745356 11 27 C9.125 26.75 9.125 26.75 7 26 C5.875 24 5.875 24 5 22 C4.34 21.67 3.68 21.34 3 21 C4.32 20.01 5.64 19.02 7 18 C5.35 18 3.7 18 2 18 C2.33 18.66 2.66 19.32 3 20 C1.88625 20.12375 0.7725 20.2475 -0.375 20.375 C-4.03103677 20.6465813 -4.03103677 20.6465813 -6 23 C-6 20.03 -6 17.06 -6 14 C-6.66 14 -7.32 14 -8 14 C-7.37606349 10.23880524 -5.65226285 7.81039958 -3.4375 4.75 C-2.79683594 3.85796875 -2.15617187 2.9659375 -1.49609375 2.046875 C-0.75552734 1.03367187 -0.75552734 1.03367187 0 0 Z " fill="#EAEAEA" transform="translate(61,85)"/>
<path d="M0 0 C0.495 1.98 0.495 1.98 1 4 C-0.65 4.33 -2.3 4.66 -4 5 C-4 5.66 -4 6.32 -4 7 C-5.7325 7.7425 -5.7325 7.7425 -7.5 8.5 C-12.03279088 10.51934759 -16.49146887 12.67295628 -20.9375 14.875 C-21.58074219 15.19017578 -22.22398438 15.50535156 -22.88671875 15.83007812 C-26.64485259 17.70538691 -30.22387111 19.73910541 -33.7890625 21.9609375 C-39.11139307 25.1952102 -44.64406444 27.49852267 -50.4375 29.75 C-52.37485307 30.51269726 -54.31110503 31.27819907 -56.24609375 32.046875 C-57.08841553 32.37526367 -57.9307373 32.70365234 -58.79858398 33.04199219 C-61.21807483 34.01783046 -61.21807483 34.01783046 -64 36 C-62.9275 36.391875 -61.855 36.78375 -60.75 37.1875 C-57.10725357 38.73917698 -55.16303879 40.62565949 -53 44 C-53 44.66 -53 45.32 -53 46 C-54.875 45.6875 -54.875 45.6875 -57 45 C-57.66 44.01 -58.32 43.02 -59 42 C-65.88346082 39.70551306 -71.58568808 41.33717094 -78.30078125 43.33203125 C-81.99272798 44.24566785 -85.21636407 44.21416807 -89 44 C-86.62844111 41.62844111 -85.07711918 41.30858788 -81.875 40.375 C-75.87982801 38.45568235 -70.48880943 35.8633209 -64.91650391 32.98706055 C-61.08360301 31.01693311 -57.27454542 29.24502181 -53.25 27.6875 C-42.48324966 23.34276515 -32.44346431 17.14346845 -22.40234375 11.35546875 C-21.68852539 10.94651367 -20.97470703 10.53755859 -20.23925781 10.11621094 C-18.91801593 9.35717288 -17.60060874 8.59140011 -16.28808594 7.81738281 C-12.28871484 5.51628599 -8.44351031 4.18674239 -4 3 C-1.64040542 1.50513154 -1.64040542 1.50513154 0 0 Z " fill="#DCDCDC" transform="translate(143,103)"/>
<path d="M0 0 C1.10370043 3.3111013 0.92673641 5.24748949 0.5625 8.6875 C0.46066406 9.68136719 0.35882813 10.67523438 0.25390625 11.69921875 C0.17011719 12.45847656 0.08632813 13.21773437 0 14 C0.66 14 1.32 14 2 14 C2.33 11.69 2.66 9.38 3 7 C4.32 6.67 5.64 6.34 7 6 C6.690625 6.886875 6.38125 7.77375 6.0625 8.6875 C4.85414234 12.24069818 4.85414234 12.24069818 4 17 C5.65 13.7 7.3 10.4 9 7 C10.13643966 10.40931897 9.86747764 11.00335456 8.5625 14.1875 C8.13130859 15.26064453 8.13130859 15.26064453 7.69140625 16.35546875 C7.46324219 16.89816406 7.23507813 17.44085937 7 18 C7.66 18 8.32 18 9 18 C9.66 16.35 10.32 14.7 11 13 C11.99 13.33 12.98 13.66 14 14 C13.443125 14.73863281 12.88625 15.47726563 12.3125 16.23828125 C8.52228035 21.27696853 4.75093034 26.32348002 1.0625 31.4375 C-5.27800598 40.19042957 -11.95246402 48.69424502 -18.625 57.1953125 C-19.8111471 58.75213057 -20.9143414 60.3715121 -22 62 C-22.66 61.67 -23.32 61.34 -24 61 C-21.58715971 57.61312377 -19.17165357 54.22823682 -16.75 50.84765625 C-15.03037143 48.4465408 -13.32169842 46.03845617 -11.625 43.62109375 C-10.92375 42.63238281 -10.2225 41.64367188 -9.5 40.625 C-8.8709375 39.73039062 -8.241875 38.83578125 -7.59375 37.9140625 C-7.0678125 37.28242187 -6.541875 36.65078125 -6 36 C-5.34 36 -4.68 36 -4 36 C-3.731875 35.2575 -3.46375 34.515 -3.1875 33.75 C-2 31 -2 31 -0.3125 29.125 C1.31119947 26.93708864 1.31119947 26.93708864 0.875 23.625 C-0.94013251 16.10516532 -5.21291787 10.90188207 -10 5 C-8.6875 3.5 -8.6875 3.5 -7 2 C-6.01 2 -5.02 2 -4 2 C-3.34 3.32 -2.68 4.64 -2 6 C-1.34 4.02 -0.68 2.04 0 0 Z " fill="#C1C1C1" transform="translate(49,5)"/>
<path d="M0 0 C0.99 0.33 1.98 0.66 3 1 C3.8125 2.75 3.8125 2.75 4 5 C3.34 6.65 2.68 8.3 2 10 C4.97 7.03 7.94 4.06 11 1 C11.66 1.33 12.32 1.66 13 2 C9 6 5 10 1 14 C1.61875 13.814375 2.2375 13.62875 2.875 13.4375 C5 13 5 13 7 14 C6.43410156 14.33773437 5.86820313 14.67546875 5.28515625 15.0234375 C4.55167969 15.46945313 3.81820312 15.91546875 3.0625 16.375 C2.33160156 16.81585938 1.60070312 17.25671875 0.84765625 17.7109375 C-1.13772272 18.8773984 -1.13772272 18.8773984 -2 21 C-1.34 21 -0.68 21 0 21 C-0.33 22.32 -0.66 23.64 -1 25 C-1.66 25 -2.32 25 -3 25 C-3.12117187 25.54527344 -3.24234375 26.09054688 -3.3671875 26.65234375 C-4.578125 32.1015625 -5.7890625 37.55078125 -7 43 C-4.03 40.03 -1.06 37.06 2 34 C2.66 34.33 3.32 34.66 4 35 C3.50628906 35.48210937 3.01257813 35.96421875 2.50390625 36.4609375 C1.86324219 37.09257813 1.22257813 37.72421875 0.5625 38.375 C-0.07558594 39.00148437 -0.71367187 39.62796875 -1.37109375 40.2734375 C-3.07882176 41.91723061 -3.07882176 41.91723061 -4 44 C-2.68 43.34 -1.36 42.68 0 42 C-1.49128001 45.79598549 -3.65733441 47.71720399 -7 50 C-7.99 50 -8.98 50 -10 50 C-11.70532323 51.94009522 -11.70532323 51.94009522 -13 54 C-12.38167246 48.73734564 -11.19672875 43.92715098 -9.625 38.875 C-6.36882321 28.08293304 -3.94351374 17.21513244 -2.00146484 6.11499023 C-1.10579285 1.10579285 -1.10579285 1.10579285 0 0 Z " fill="#D7D7D7" transform="translate(134,50)"/>
<path d="M0 0 C0.66 0 1.32 0 2 0 C2 0.99 2 1.98 2 3 C3.98 3.66 5.96 4.32 8 5 C7.67 5.66 7.34 6.32 7 7 C6.01 6.34 5.02 5.68 4 5 C4.350625 5.556875 4.70125 6.11375 5.0625 6.6875 C6.21845993 9.53886783 5.80967438 11.08517222 5 14 C4.34 14 3.68 14 3 14 C3.12375 15.051875 3.12375 15.051875 3.25 16.125 C2.91332443 19.99676908 1.42603384 22.01944414 -1 25 C-3 25 -5 25 -7 25 C-7 24.34 -7 23.68 -7 23 C-7.66 23 -8.32 23 -9 23 C-9.91411669 19.99873825 -10.29030773 18.57863384 -8.85546875 15.71875 C-8.30503906 14.9865625 -7.75460938 14.254375 -7.1875 13.5 C-4.89758568 10.41051939 -3.33120238 7.61155803 -2 4 C-1.34786461 2.65949948 -0.68620031 1.32338632 0 0 Z " fill="#EAEAEA" transform="translate(51,71)"/>
<path d="M0 0 C-0.33 0.99 -0.66 1.98 -1 3 C-0.01 3.33 0.98 3.66 2 4 C2 3.34 2 2.68 2 2 C2.66 2 3.32 2 4 2 C4 2.99 4 3.98 4 5 C5.32 5.33 6.64 5.66 8 6 C7.45276317 9.37462715 6.9451 11.08235 5 14 C4.34 13.67 3.68 13.34 3 13 C3 12.34 3 11.68 3 11 C2.01 11.33 1.02 11.66 0 12 C0 12.66 0 13.32 0 14 C-3.21182149 15.90608098 -5.53882603 16.22266247 -9.25 16.125 C-10.14203125 16.10695313 -11.0340625 16.08890625 -11.953125 16.0703125 C-12.62859375 16.04710938 -13.3040625 16.02390625 -14 16 C-13.62960983 9.57990379 -13.62960983 9.57990379 -10.625 6.8125 C-9.325625 5.9153125 -9.325625 5.9153125 -8 5 C-7.46375 4.278125 -6.9275 3.55625 -6.375 2.8125 C-4.56594224 0.42783296 -2.95757296 0 0 0 Z " fill="#F5F5F5" transform="translate(69,51)"/>
<path d="M0 0 C1.62600941 0.0870005 3.25089678 0.1951781 4.875 0.3125 C5.77992187 0.37050781 6.68484375 0.42851563 7.6171875 0.48828125 C10 1 10 1 12 4 C12.41064453 6.36010742 12.41064453 6.36010742 12.6328125 9.10546875 C12.71660156 10.08837891 12.80039062 11.07128906 12.88671875 12.08398438 C12.96535156 13.10814453 13.04398438 14.13230469 13.125 15.1875 C13.21136719 16.22326172 13.29773437 17.25902344 13.38671875 18.32617188 C13.59885449 20.88358608 13.80296419 23.44138541 14 26 C7.74005568 20.10120631 1.06925996 11.99317025 0 3.1875 C0 2.135625 0 1.08375 0 0 Z " fill="#060606" transform="translate(4,99)"/>
<path d="M0 0 C0.33 0.99 0.66 1.98 1 3 C0.67 3.33 0.34 3.66 0 4 C-0.04063832 5.66617115 -0.042721 7.33388095 0 9 C1.32 8.67 2.64 8.34 4 8 C3.01 9.65 2.02 11.3 1 13 C1.66 13.66 2.32 14.32 3 15 C2.625 18.625 2.625 18.625 2 22 C2.66 22.33 3.32 22.66 4 23 C3.01 23 2.02 23 1 23 C1 24.65 1 26.3 1 28 C0.34 26.68 -0.32 25.36 -1 24 C-1.78375 24.515625 -2.5675 25.03125 -3.375 25.5625 C-4.24125 26.036875 -5.1075 26.51125 -6 27 C-6.66 26.67 -7.32 26.34 -8 26 C-8 25.67 -8 25.34 -8 25 C-8.66 25 -9.32 25 -10 25 C-11 22 -11 22 -11 20 C-11.66 19.34 -12.32 18.68 -13 18 C-13.99 18.33 -14.98 18.66 -16 19 C-16 18.34 -16 17.68 -16 17 C-15.0925 16.46375 -14.185 15.9275 -13.25 15.375 C-9.21770106 12.87153478 -7.76213768 9.27059249 -6 5 C-4.64984141 9.05047576 -5.37915002 11.7920168 -6 16 C-5.34 16.33 -4.68 16.66 -4 17 C-4 15.68 -4 14.36 -4 13 C-3.34 12.67 -2.68 12.34 -2 12 C-2.226875 10.7625 -2.45375 9.525 -2.6875 8.25 C-3.09666898 5.13146889 -3.18326458 4.31872101 -1.5625 1.5 C-1.046875 1.005 -0.53125 0.51 0 0 Z " fill="#222222" transform="translate(40,72)"/>
<path d="M0 0 C4.16810198 1.52778174 7.9480445 3.54414228 11.75 5.8125 C12.33910156 6.14314453 12.92820312 6.47378906 13.53515625 6.81445312 C16.43110532 8.54869389 17.83592248 9.49121575 18.890625 12.76171875 C18.94476563 13.86966797 18.94476563 13.86966797 19 15 C17.42953257 16.06096463 15.84305483 17.09826235 14.25 18.125 C13.36828125 18.70507812 12.4865625 19.28515625 11.578125 19.8828125 C9 21 9 21 6.71875 20.3125 C5 19 5 19 4.25 16.875 C4.12625 15.946875 4.12625 15.946875 4 15 C5.32 15 6.64 15 8 15 C6.02 12.36 4.04 9.72 2 7 C4.475 7.99 4.475 7.99 7 9 C7.66 8.34 8.32 7.68 9 7 C8.3503125 6.57847656 7.700625 6.15695313 7.03125 5.72265625 C5.77828125 4.90087891 5.77828125 4.90087891 4.5 4.0625 C3.6646875 3.51722656 2.829375 2.97195312 1.96875 2.41015625 C1.3190625 1.94480469 0.669375 1.47945313 0 1 C0 0.67 0 0.34 0 0 Z " fill="#212121" transform="translate(98,102)"/>
<path d="M0 0 C0.33 0.66 0.66 1.32 1 2 C-0.32 3.32 -1.64 4.64 -3 6 C-1.68 5.01 -0.36 4.02 1 3 C1.66 3.33 2.32 3.66 3 4 C2.24266726 5.3410477 1.46867264 6.67269781 0.6875 8 C0.25824219 8.7425 -0.17101562 9.485 -0.61328125 10.25 C-1.07089844 10.8275 -1.52851562 11.405 -2 12 C-2.99 12 -3.98 12 -5 12 C-8.66648922 14.32958158 -11.57679299 16.70216516 -12.9375 20.875 C-12.958125 21.57625 -12.97875 22.2775 -13 23 C-13.99 23.33 -14.98 23.66 -16 24 C-17.20882096 26.00016466 -17.20882096 26.00016466 -18 28 C-18.66 27.67 -19.32 27.34 -20 27 C-19.01 25.68 -18.02 24.36 -17 23 C-17.99 22.67 -18.98 22.34 -20 22 C-17.36 19.69 -14.72 17.38 -12 15 C-13.32 14.34 -14.64 13.68 -16 13 C-5.62642369 3.40546697 -5.62642369 3.40546697 0 0 Z " fill="#5A5A5A" transform="translate(47,29)"/>
<path d="M0 0 C5.61 0 11.22 0 17 0 C12.25 7.625 12.25 7.625 10 11 C9.34 11 8.68 11 8 11 C7.67 10.34 7.34 9.68 7 9 C5.35 9.33 3.7 9.66 2 10 C1.34 9.01 0.68 8.02 0 7 C-0.66 8.32 -1.32 9.64 -2 11 C-2.66 11 -3.32 11 -4 11 C-3.52269162 9.5410574 -3.04308958 8.08286504 -2.5625 6.625 C-2.29566406 5.81289062 -2.02882813 5.00078125 -1.75390625 4.1640625 C-1 2 -1 2 0 0 Z " fill="#0D0D0D" transform="translate(75,0)"/>
<path d="M0 0 C3.63 1.32 7.26 2.64 11 4 C11.33 3.01 11.66 2.02 12 1 C12.99 1.33 13.98 1.66 15 2 C15 2.99 15 3.98 15 5 C14.34 5 13.68 5 13 5 C13 6.98 13 8.96 13 11 C12.195625 11.12375 11.39125 11.2475 10.5625 11.375 C9.716875 11.58125 8.87125 11.7875 8 12 C7.67 12.66 7.34 13.32 7 14 C6.01 13.34 5.02 12.68 4 12 C4 11.01 4 10.02 4 9 C2.68 9.33 1.36 9.66 0 10 C0 9.34 0 8.68 0 8 C-0.66 7.67 -1.32 7.34 -2 7 C-1.34 4.69 -0.68 2.38 0 0 Z " fill="#080808" transform="translate(63,82)"/>
<path d="M0 0 C0 0.66 0 1.32 0 2 C-1.093125 2.309375 -2.18625 2.61875 -3.3125 2.9375 C-5.55407994 3.58337897 -7.7869351 4.2623117 -10 5 C-10 5.99 -10 6.98 -10 8 C-8.576875 7.2265625 -8.576875 7.2265625 -7.125 6.4375 C-6.09375 5.963125 -5.0625 5.48875 -4 5 C-3.34 5.33 -2.68 5.66 -2 6 C-3.0828125 6.5878125 -3.0828125 6.5878125 -4.1875 7.1875 C-8.04744536 9.67502034 -10.98334367 12.60680429 -13.6875 16.3125 C-14.120625 16.869375 -14.55375 17.42625 -15 18 C-15.66 18 -16.32 18 -17 18 C-17.226875 18.5775 -17.45375 19.155 -17.6875 19.75 C-19 22 -19 22 -21.5 23.875 C-24.45034017 26.38278915 -25.07473786 28.29895144 -26 32 C-26.33 32 -26.66 32 -27 32 C-26.875 28.8125 -26.875 28.8125 -26 25 C-24.04072937 23.2856382 -22.04119788 21.61594832 -20 20 C-19.04452419 17.32891902 -19.04452419 17.32891902 -19 15 C-18.01 15.33 -17.02 15.66 -16 16 C-15.566875 15.1028125 -15.566875 15.1028125 -15.125 14.1875 C-14 12 -14 12 -12 9 C-14.37948772 9.17625835 -15.70225849 9.69719773 -17.37890625 11.40234375 C-18.62115486 12.90649092 -19.81376056 14.45129851 -21 16 C-21.66796875 14.22265625 -21.66796875 14.22265625 -22 12 C-19.33251587 7.48952683 -14.94713725 2.84972205 -9.859375 1.3828125 C-6.49659811 0.59093278 -3.4645414 0 0 0 Z " fill="#757575" transform="translate(68,40)"/>
<path d="M0 0 C0.66 0.99 1.32 1.98 2 3 C2.99 3.33 3.98 3.66 5 4 C4.34 5.65 3.68 7.3 3 9 C2.34 9 1.68 9 1 9 C0.65066406 9.77085938 0.30132812 10.54171875 -0.05859375 11.3359375 C-0.51363281 12.33882812 -0.96867187 13.34171875 -1.4375 14.375 C-1.88996094 15.37273438 -2.34242187 16.37046875 -2.80859375 17.3984375 C-3.51597316 18.94307583 -4.24022461 20.48044922 -5 22 C-5.66 22 -6.32 22 -7 22 C-6.34 19.03 -5.68 16.06 -5 13 C-5.61875 14.299375 -6.2375 15.59875 -6.875 16.9375 C-8.75 20.875 -8.75 20.875 -11 22 C-10.51421457 18.87709365 -10.0013988 16.00419641 -9 13 C-9.556875 12.13375 -9.556875 12.13375 -10.125 11.25 C-11 9 -11 9 -9.625 5.25 C-9.08875 4.1775 -8.5525 3.105 -8 2 C-7 5 -7 5 -7 8 C-6.01 8 -5.02 8 -4 8 C-2.68 5.36 -1.36 2.72 0 0 Z " fill="#363636" transform="translate(63,1)"/>
<path d="M0 0 C0.66 0.33 1.32 0.66 2 1 C1.01 2.98 0.02 4.96 -1 7 C-0.01 7 0.98 7 2 7 C2.66 5.35 3.32 3.7 4 2 C4.66 2.66 5.32 3.32 6 4 C6.66 4 7.32 4 8 4 C8 4.66 8 5.32 8 6 C7.39414063 6.24492187 6.78828125 6.48984375 6.1640625 6.7421875 C-2.4400295 10.58093624 -9.95368227 16.94839114 -15 25 C-15.35868159 27.12972821 -15.35868159 27.12972821 -15.1875 29.25 C-15.125625 30.4875 -15.06375 31.725 -15 33 C-15.66 33 -16.32 33 -17 33 C-18.23759823 29.28720531 -18.35608897 25.68693654 -18.5625 21.8125 C-18.60568359 21.06291016 -18.64886719 20.31332031 -18.69335938 19.54101562 C-18.79922685 17.69421625 -18.9000976 15.84713166 -19 14 C-17.515 14.99 -17.515 14.99 -16 16 C-15.34 15.34 -14.68 14.68 -14 14 C-14.33 16.31 -14.66 18.62 -15 21 C-8.6850909 14.53072646 -3.94732713 8.14232969 0 0 Z " fill="#D0D0D0" transform="translate(111,10)"/>
<path d="M0 0 C2.3243167 1.97214751 2.49567629 2.86218234 3.0625 5.75 C-0.395676 5.8368329 -3.85357344 5.89033282 -7.3125 5.9375 C-8.78976563 5.97520508 -8.78976563 5.97520508 -10.296875 6.01367188 C-11.70839844 6.02817383 -11.70839844 6.02817383 -13.1484375 6.04296875 C-14.01774902 6.0586792 -14.88706055 6.07438965 -15.78271484 6.09057617 C-16.49379395 5.97818604 -17.20487305 5.8657959 -17.9375 5.75 C-18.5975 4.76 -19.2575 3.77 -19.9375 2.75 C-13.66361721 -1.258314 -7.12330119 -3.031192 0 0 Z " fill="#060606" transform="translate(83.9375,144.25)"/>
<path d="M0 0 C0 0.66 0 1.32 0 2 C1.5778125 2.061875 1.5778125 2.061875 3.1875 2.125 C8.21762963 3.27945598 9.1725959 4.80173331 12 9 C12 9.66 12 10.32 12 11 C10.125 10.6875 10.125 10.6875 8 10 C7.34 9.01 6.68 8.02 6 7 C-0.88346082 4.70551306 -6.58568808 6.33717094 -13.30078125 8.33203125 C-16.99272798 9.24566785 -20.21636407 9.21416807 -24 9 C-21.53758005 6.53758005 -19.56561637 6.08935134 -16.25 5.0625 C-12.80711267 3.96291756 -9.74069902 2.87034951 -6.5 1.25 C-4 0 -4 0 0 0 Z " fill="#E3E3E3" transform="translate(78,138)"/>
<path d="M0 0 C0.66 0.33 1.32 0.66 2 1 C2.29296875 7.0546875 2.29296875 7.0546875 2 9 C1.01 9.66 0.02 10.32 -1 11 C-1.33 11.99 -1.66 12.98 -2 14 C-3.97300116 15.05226728 -5.97676387 16.04788888 -8 17 C-9.35863401 17.96534522 -10.70343137 18.95277149 -12 20 C-12.66 19.67 -13.32 19.34 -14 19 C-12.54744301 15.17053157 -10.57104439 13.87949705 -7 12 C-8.98 12.66 -10.96 13.32 -13 14 C-8.88380164 9.08064098 -4.59589638 4.47352044 0 0 Z " fill="#727272" transform="translate(146,52)"/>
<path d="M0 0 C2.33944736 0.28730055 4.6739143 0.61936779 7 1 C8.45295405 9.19256018 8.45295405 9.19256018 6.5625 12.5625 C6.046875 13.036875 5.53125 13.51125 5 14 C2.03824877 13.38722388 0.61941217 12.74627478 -2 11 C-2.1875 8.375 -2.1875 8.375 -2 6 C-1.34 6 -0.68 6 0 6 C-0.2784375 4.7934375 -0.2784375 4.7934375 -0.5625 3.5625 C-0.706875 2.716875 -0.85125 1.87125 -1 1 C-0.67 0.67 -0.34 0.34 0 0 Z " fill="#F0F0F0" transform="translate(89,65)"/>
<path d="M0 0 C0.99 0 1.98 0 3 0 C4.640625 1.828125 4.640625 1.828125 6.25 4.25 C7.06210938 5.43335938 7.06210938 5.43335938 7.890625 6.640625 C9 9 9 9 8.70703125 11.13671875 C8.35705078 12.05904297 8.35705078 12.05904297 8 13 C7.38777668 15.78901734 7 18.13304555 7 21 C5.02 21.99 5.02 21.99 3 23 C2.63601378 20.91835982 2.28416713 18.83459438 1.9375 16.75 C1.74027344 15.58984375 1.54304687 14.4296875 1.33984375 13.234375 C1.03089915 10.29407469 1.22601136 8.75733455 2 6 C1.12949221 2.80376352 1.12949221 2.80376352 0 0 Z " fill="#E7E7E7" transform="translate(131,26)"/>
<path d="M0 0 C8.17858134 0.52765041 16.78885583 2.23250899 23 8 C23.94140625 10.33984375 23.94140625 10.33984375 24.5625 12.9375 C25.26637674 15.83607315 25.79143676 17.72428957 27.6015625 20.1171875 C29 22 29 22 28.8125 25.1875 C26.93636364 33.99090909 26.93636364 33.99090909 26 38 C24.4169331 33.33109979 25.46229928 28.78975785 26.0390625 23.99609375 C26.32298596 21.02858961 26.32298596 21.02858961 24.62890625 19.421875 C24.09136719 18.95265625 23.55382812 18.4834375 23 18 C22.05078125 15.51953125 22.05078125 15.51953125 21.3125 12.8125 C21.06113281 11.91144531 20.80976562 11.01039062 20.55078125 10.08203125 C20.36902344 9.39496094 20.18726562 8.70789062 20 8 C17.525 7.505 17.525 7.505 15 7 C15 6.34 15 5.68 15 5 C9.72 4.01 4.44 3.02 -1 2 C-0.67 1.34 -0.34 0.68 0 0 Z " fill="#C3C3C3" transform="translate(73,40)"/>
<path d="M0 0 C-3.79838116 5.76306107 -3.79838116 5.76306107 -5.60546875 7.88671875 C-7.6896578 11.04511168 -7.46037136 13.96445637 -7.59375 17.66015625 C-8.06913882 20.39821302 -8.87711808 21.27798142 -11 23 C-12.98 22.34 -14.96 21.68 -17 21 C-16 18 -16 18 -14.125 16.75 C-12 16 -12 16 -9 17 C-9 14.36 -9 11.72 -9 9 C-9.66 8.67 -10.32 8.34 -11 8 C-10.21448343 6.68381002 -9.4213763 5.37214772 -8.625 4.0625 C-7.96371094 2.96615234 -7.96371094 2.96615234 -7.2890625 1.84765625 C-5.02931272 -1.39131844 -3.51592421 -1.05477726 0 0 Z " fill="#090909" transform="translate(61,86)"/>
<path d="M0 0 C0.33 0.66 0.66 1.32 1 2 C0.67 2.99 0.34 3.98 0 5 C0.99 5.33 1.98 5.66 3 6 C3.9375 8.5625 3.9375 8.5625 4 12 C1.98996176 14.70135198 -0.47368171 16.79136246 -3 19 C-4.34150232 20.32511399 -5.67697359 21.65643881 -7 23 C-5.47608739 14.88401088 -3.8342873 7.3571604 0 0 Z " fill="#0E0E0E" transform="translate(102,9)"/>
<path d="M0 0 C6.71135664 0.16405538 10.26796574 1.14966489 15 6 C16.20270964 8.40541929 16.20316663 10.10366591 16.31640625 12.7890625 C16.35830078 13.73007813 16.40019531 14.67109375 16.44335938 15.640625 C16.48267578 16.62546875 16.52199219 17.6103125 16.5625 18.625 C16.60568359 19.61757812 16.64886719 20.61015625 16.69335938 21.6328125 C16.79961069 24.08839838 16.90164964 26.54408703 17 29 C16.34 29 15.68 29 15 29 C13.85554205 26.71108411 13.72555255 25.04552164 13.5 22.5 C13.37625 21.1696875 13.37625 21.1696875 13.25 19.8125 C13.08333333 17.9375 12.91666667 16.0625 12.75 14.1875 C12.62625 12.8571875 12.62625 12.8571875 12.5 11.5 C12.4278125 10.6853125 12.355625 9.870625 12.28125 9.03125 C12.10173091 6.93653354 12.10173091 6.93653354 11 5 C8.65092125 4.31068656 8.65092125 4.31068656 5.9375 3.875 C5.01839844 3.70742187 4.09929688 3.53984375 3.15234375 3.3671875 C2.44207031 3.24601562 1.73179687 3.12484375 1 3 C0.67 2.01 0.34 1.02 0 0 Z " fill="#D6D6D6" transform="translate(3,96)"/>
<path d="M0 0 C0.66 0 1.32 0 2 0 C0.41265602 4.92361784 -2.45500271 8.57504923 -5.5625 12.625 C-6.09681641 13.32995605 -6.63113281 14.03491211 -7.18164062 14.76123047 C-11.05656033 19.84561585 -15.06654184 24.79853401 -19.15234375 29.71484375 C-21.30484546 32.37702874 -23.19404217 35.09476349 -25 38 C-25.66 37.67 -26.32 37.34 -27 37 C-24.58715971 33.61312377 -22.17165357 30.22823682 -19.75 26.84765625 C-18.03037143 24.4465408 -16.32169842 22.03845617 -14.625 19.62109375 C-13.92375 18.63238281 -13.2225 17.64367187 -12.5 16.625 C-11.8709375 15.73039062 -11.241875 14.83578125 -10.59375 13.9140625 C-10.0678125 13.28242187 -9.541875 12.65078125 -9 12 C-8.34 12 -7.68 12 -7 12 C-6.6596875 10.9790625 -6.6596875 10.9790625 -6.3125 9.9375 C-4.68773854 6.3011291 -2.67196743 2.97170737 0 0 Z " fill="#D7D7D7" transform="translate(52,29)"/>
<path d="M0 0 C0.66 0.33 1.32 0.66 2 1 C1.50628906 1.48210937 1.01257813 1.96421875 0.50390625 2.4609375 C-0.45708984 3.40839844 -0.45708984 3.40839844 -1.4375 4.375 C-2.07558594 5.00148438 -2.71367187 5.62796875 -3.37109375 6.2734375 C-5.07882176 7.91723061 -5.07882176 7.91723061 -6 10 C-4.68 9.34 -3.36 8.68 -2 8 C-3.49128001 11.79598549 -5.65733441 13.71720399 -9 16 C-9.99 16 -10.98 16 -12 16 C-13.70532323 17.94009522 -13.70532323 17.94009522 -15 20 C-14.35812082 14.86496656 -13.31727753 10.0056546 -12 5 C-11.67 5.66 -11.34 6.32 -11 7 C-10.34 7.33 -9.68 7.66 -9 8 C-5.78796065 5.50174717 -2.82506863 2.9297008 0 0 Z " fill="#C8C8C8" transform="translate(136,84)"/>
<path d="M0 0 C-0.33 0.99 -0.66 1.98 -1 3 C-0.01 3.33 0.98 3.66 2 4 C2 3.34 2 2.68 2 2 C2.66 2 3.32 2 4 2 C4 2.99 4 3.98 4 5 C5.32 5.33 6.64 5.66 8 6 C7.45276317 9.37462715 6.9451 11.08235 5 14 C4.34 13.67 3.68 13.34 3 13 C3 12.34 3 11.68 3 11 C-0.11785113 11.64644661 -0.11785113 11.64644661 -1 14 C-2 11 -2 11 -1 8 C-1.99 8 -2.98 8 -4 8 C-3.67 6.02 -3.34 4.04 -3 2 C-3.66 1.67 -4.32 1.34 -5 1 C-2 0 -2 0 0 0 Z " fill="#E1E1E1" transform="translate(69,51)"/>
<path d="M0 0 C2 2 2 2 2.1953125 4.6015625 C2.17210938 5.59929687 2.14890625 6.59703125 2.125 7.625 C2.10695313 8.62789062 2.08890625 9.63078125 2.0703125 10.6640625 C2.03550781 11.82035156 2.03550781 11.82035156 2 13 C-1.3 12.67 -4.6 12.34 -8 12 C-7.70338645 8.44063745 -7.31330121 7.27313438 -4.5625 4.875 C-3.716875 4.25625 -2.87125 3.6375 -2 3 C-1.34 2.01 -0.68 1.02 0 0 Z " fill="#0D0D0D" transform="translate(78,69)"/>
<path d="M0 0 C0.33 0.66 0.66 1.32 1 2 C0.22265625 4.1640625 0.22265625 4.1640625 -0.9375 6.625 C-1.31777344 7.44226563 -1.69804688 8.25953125 -2.08984375 9.1015625 C-2.39019531 9.72804688 -2.69054687 10.35453125 -3 11 C-0.2160817 9.60804085 -0.02101003 7.84424221 1 5 C3 7 3 7 3 10 C4.65 10 6.3 10 8 10 C8 10.33 8 10.66 8 11 C7.00419922 11.14695312 7.00419922 11.14695312 5.98828125 11.296875 C0.51303262 12.22407039 -2.79767626 13.17970569 -7 17 C-7.99 17 -8.98 17 -10 17 C-10.33 17.66 -10.66 18.32 -11 19 C-11.99 18.67 -12.98 18.34 -14 18 C-12.90931332 14.22454612 -12.0916909 11.52956528 -9 9 C-9.33 10.98 -9.66 12.96 -10 15 C-6.83491017 13.4593768 -5.2658854 12.53333482 -3.671875 9.3359375 C-3.36765625 8.35882813 -3.0634375 7.38171875 -2.75 6.375 C-1.04247104 1.04247104 -1.04247104 1.04247104 0 0 Z " fill="#C7C7C7" transform="translate(74,0)"/>
<path d="M0 0 C0 3.39593478 -0.52165948 4.06619881 -2.5 6.6875 C-2.9640625 7.31011719 -3.428125 7.93273437 -3.90625 8.57421875 C-4.2671875 9.04472656 -4.628125 9.51523438 -5 10 C-5.66 9.67 -6.32 9.34 -7 9 C-6.67 8.34 -6.34 7.68 -6 7 C-9.81915388 8.50038188 -11.49946383 10.83265418 -14 14 C-14.66 14 -15.32 14 -16 14 C-16.33 13.01 -16.66 12.02 -17 11 C-16.01 10.67 -15.02 10.34 -14 10 C-13.67 8.02 -13.34 6.04 -13 4 C-11.35 4 -9.7 4 -8 4 C-7.67 3.01 -7.34 2.02 -7 1 C-6.34 1 -5.68 1 -5 1 C-5 1.66 -5 2.32 -5 3 C-4.34 3 -3.68 3 -3 3 C-3 2.34 -3 1.68 -3 1 C-2.01 0.67 -1.02 0.34 0 0 Z " fill="#626262" transform="translate(95,92)"/>
<path d="M0 0 C0.33 0.66 0.66 1.32 1 2 C1.66 2 2.32 2 3 2 C3.4025937 5.52269485 3.13372795 6.79940808 1.125 9.8125 C0.42375 10.534375 -0.2775 11.25625 -1 12 C-2.66666667 12 -4.33333333 12 -6 12 C-6.75 9.75 -6.75 9.75 -7 7 C-5.25 4.875 -5.25 4.875 -3 3 C-2.4225 2.4225 -1.845 1.845 -1.25 1.25 C-0.8375 0.8375 -0.425 0.425 0 0 Z " fill="#EDEDED" transform="translate(50,84)"/>
<path d="M0 0 C0.66 0 1.32 0 2 0 C1.08446312 3.93680857 0.10643972 6.18560036 -3.0625 8.625 C-6.09764427 10.67024529 -6.09764427 10.67024529 -6.875 13.3125 C-6.91625 13.869375 -6.9575 14.42625 -7 15 C-5.081875 14.9690625 -5.081875 14.9690625 -3.125 14.9375 C0.75 14.875 0.75 14.875 3 16 C3 12.04 3 8.08 3 4 C3.33 4 3.66 4 4 4 C4.33 8.29 4.66 12.58 5 17 C3.35 17.33 1.7 17.66 0 18 C0 17.34 0 16.68 0 16 C-2.64 16 -5.28 16 -8 16 C-8.8125 13.8125 -8.8125 13.8125 -9 11 C-6.8125 8.5625 -6.8125 8.5625 -4 6 C-3.278125 4.906875 -2.55625 3.81375 -1.8125 2.6875 C-1.214375 1.800625 -0.61625 0.91375 0 0 Z " fill="#CECECE" transform="translate(77,66)"/>
<path d="M0 0 C1.10370043 3.3111013 0.92673641 5.24748949 0.5625 8.6875 C0.46066406 9.68136719 0.35882813 10.67523438 0.25390625 11.69921875 C0.17011719 12.45847656 0.08632813 13.21773437 0 14 C0.66 14.33 1.32 14.66 2 15 C1.34 15 0.68 15 0 15 C-0.33 15.66 -0.66 16.32 -1 17 C-3.97 13.04 -6.94 9.08 -10 5 C-9.01 4.01 -8.02 3.02 -7 2 C-6.01 2 -5.02 2 -4 2 C-3.34 3.32 -2.68 4.64 -2 6 C-1.34 4.02 -0.68 2.04 0 0 Z " fill="#CBCBCB" transform="translate(49,5)"/>
<path d="M0 0 C4.68512305 1.61051105 9.16366777 3.84488564 13 7 C14 9.8125 14 9.8125 14 12 C13.01 12.495 13.01 12.495 12 13 C11.34 12.67 10.68 12.34 10 12 C9.34 13.65 8.68 15.3 8 17 C7.01 16.67 6.02 16.34 5 16 C5.66 15.67 6.32 15.34 7 15 C5.62845496 12.04590299 4.01136276 9.55991624 2 7 C4.475 7.99 4.475 7.99 7 9 C7.66 8.34 8.32 7.68 9 7 C8.3503125 6.57847656 7.700625 6.15695313 7.03125 5.72265625 C5.77828125 4.90087891 5.77828125 4.90087891 4.5 4.0625 C3.6646875 3.51722656 2.829375 2.97195312 1.96875 2.41015625 C1.3190625 1.94480469 0.669375 1.47945313 0 1 C0 0.67 0 0.34 0 0 Z " fill="#6B6B6B" transform="translate(98,102)"/>
<path d="M0 0 C0.99 0.33 1.98 0.66 3 1 C3.8125 2.75 3.8125 2.75 4 5 C3.34 6.65 2.68 8.3 2 10 C4.97 7.03 7.94 4.06 11 1 C11.66 1.33 12.32 1.66 13 2 C11.29491951 3.70508049 9.58961995 5.40992887 7.8828125 7.11328125 C6.74725368 8.251196 5.61575089 9.39320829 4.4921875 10.54296875 C1.20797414 13.89601293 1.20797414 13.89601293 -1 15 C-2.13129791 9.97200929 -1.85122426 6.02222315 -1 1 C-0.67 0.67 -0.34 0.34 0 0 Z " fill="#E6E6E6" transform="translate(134,50)"/>
<path d="M0 0 C1.10859156 3.32577469 0.75637109 5.58646651 0.2421875 9.00390625 C-0.07887704 11.13199047 -0.07887704 11.13199047 0.1875 13.8125 C0 16 0 16 -2 17.8125 C-2.66 18.204375 -3.32 18.59625 -4 19 C-4.12375 18.38125 -4.2475 17.7625 -4.375 17.125 C-4.87197356 14.80879168 -4.87197356 14.80879168 -7 13 C-7.99 13.33 -8.98 13.66 -10 14 C-10 13.34 -10 12.68 -10 12 C-9.0925 11.46375 -8.185 10.9275 -7.25 10.375 C-3.21770106 7.87153478 -1.76213768 4.27059249 0 0 Z " fill="#4E4E4E" transform="translate(34,77)"/>
<path d="M0 0 C0.66 0.33 1.32 0.66 2 1 C0.9171875 1.5878125 0.9171875 1.5878125 -0.1875 2.1875 C-4.04744536 4.67502034 -6.98334367 7.60680429 -9.6875 11.3125 C-10.3371875 12.1478125 -10.3371875 12.1478125 -11 13 C-11.66 13 -12.32 13 -13 13 C-13.226875 13.5775 -13.45375 14.155 -13.6875 14.75 C-15 17 -15 17 -17.5 18.875 C-20.45034017 21.38278915 -21.07473786 23.29895144 -22 27 C-22.33 27 -22.66 27 -23 27 C-22.875 23.8125 -22.875 23.8125 -22 20 C-20.04072937 18.2856382 -18.04119788 16.61594832 -16 15 C-15.04452419 12.32891902 -15.04452419 12.32891902 -15 10 C-14.01 10.33 -13.02 10.66 -12 11 C-11.566875 10.1028125 -11.566875 10.1028125 -11.125 9.1875 C-10 7 -10 7 -8 4 C-7.67 3.34 -7.34 2.68 -7 2 C-5.34385343 1.61781233 -3.67542976 1.28604898 -2 1 C-1.34 0.67 -0.68 0.34 0 0 Z " fill="#B5B5B5" transform="translate(64,45)"/>
<path d="M0 0 C0.5775 0.2475 1.155 0.495 1.75 0.75 C0.30746343 4.11591866 -1.58264727 6.26047079 -4.25 8.75 C-4.58 8.42 -4.91 8.09 -5.25 7.75 C-5.518125 8.53375 -5.78625 9.3175 -6.0625 10.125 C-7.25 12.75 -7.25 12.75 -10.25 14.75 C-10.25 12.44 -10.25 10.13 -10.25 7.75 C-9.59 7.75 -8.93 7.75 -8.25 7.75 C-8.0025 7.1725 -7.755 6.595 -7.5 6 C-3.9244186 -0.43604651 -3.9244186 -0.43604651 0 0 Z " fill="#313131" transform="translate(55.25,48.25)"/>
<path d="M0 0 C0.33 0.66 0.66 1.32 1 2 C0.39671875 2.79664063 -0.2065625 3.59328125 -0.828125 4.4140625 C-1.63550402 5.48430911 -2.44279075 6.55462535 -3.25 7.625 C-4.03890625 8.66914062 -4.8278125 9.71328125 -5.640625 10.7890625 C-8.04187091 13.96910641 -8.04187091 13.96910641 -10.09375 17.375 C-10.7228125 18.24125 -11.351875 19.1075 -12 20 C-15.25 20.375 -15.25 20.375 -18 20 C-18 19.34 -18 18.68 -18 18 C-17.2575 17.7525 -16.515 17.505 -15.75 17.25 C-12.70465682 15.8657531 -11.08515938 14.60644923 -9 12 C-8.88269531 11.20851563 -8.76539063 10.41703125 -8.64453125 9.6015625 C-7.82867567 6.30847271 -6.54518352 5.2984819 -3.9375 3.1875 C-3.20402344 2.58292969 -2.47054687 1.97835937 -1.71484375 1.35546875 C-1.14894531 0.90816406 -0.58304688 0.46085937 0 0 Z " fill="#0A0A0A" transform="translate(43,39)"/>
<path d="M0 0 C0.33 1.32 0.66 2.64 1 4 C-0.65 4.33 -2.3 4.66 -4 5 C-4 5.66 -4 6.32 -4 7 C-5.41478135 7.64995297 -6.83191487 8.29478722 -8.25 8.9375 C-9.03890625 9.29714844 -9.8278125 9.65679687 -10.640625 10.02734375 C-12.75823698 10.90033279 -14.76669362 11.51338508 -17 12 C-17.33 11.01 -17.66 10.02 -18 9 C-13.33262404 6.14242288 -9.29391889 4.49827893 -4 3 C-1.64040542 1.50513154 -1.64040542 1.50513154 0 0 Z " fill="#C4C4C4" transform="translate(143,103)"/>
<path d="M0 0 C1.98 0.66 3.96 1.32 6 2 C6 2.99 6 3.98 6 5 C7.32 5.66 8.64 6.32 10 7 C10 7.99 10 8.98 10 10 C8.88625 10.12375 7.7725 10.2475 6.625 10.375 C2.96896323 10.6465813 2.96896323 10.6465813 1 13 C1 10.03 1 7.06 1 4 C0.34 4 -0.32 4 -1 4 C-0.67 2.68 -0.34 1.36 0 0 Z " fill="#E8E8E8" transform="translate(54,95)"/>
<path d="M0 0 C1.98 0.66 3.96 1.32 6 2 C6.33 4.64 6.66 7.28 7 10 C6.01 8.68 5.02 7.36 4 6 C3.06619039 10.53140653 3.06619039 10.53140653 4 15 C3.36474424 16.67889021 2.69313908 18.34416775 2 20 C1.62406934 21.9924325 1.28020455 23.9918674 1 26 C0.67 26 0.34 26 0 26 C-0.12206226 19.11026327 0.14841107 12.38527882 0.87890625 5.53125 C1.15874599 2.87423928 1.15874599 2.87423928 0 0 Z " fill="#6C6C6C" transform="translate(119,23)"/>
<path d="M0 0 C1.32 0 2.64 0 4 0 C4 0.66 4 1.32 4 2 C5.051875 2.04125 6.10375 2.0825 7.1875 2.125 C12.21762963 3.27945598 13.1725959 4.80173331 16 9 C16 9.66 16 10.32 16 11 C14.125 10.6875 14.125 10.6875 12 10 C11.34 9.01 10.68 8.02 10 7 C7.62051621 6.0595159 7.62051621 6.0595159 4.9375 5.4375 C2.21484375 4.74609375 2.21484375 4.74609375 0 4 C-0.33 3.34 -0.66 2.68 -1 2 C-0.67 1.34 -0.34 0.68 0 0 Z " fill="#F4F4F4" transform="translate(74,138)"/>
<path d="M0 0 C1.485 0.99 1.485 0.99 3 2 C3.66 1.34 4.32 0.68 5 0 C4.67 2.31 4.34 4.62 4 7 C5.32 6.34 6.64 5.68 8 5 C7.34 5.825 6.68 6.65 6 7.5 C3.38765874 11.34492481 3.68665866 14.45655064 4 19 C3.34 19 2.68 19 2 19 C0.76240177 15.28720531 0.64391103 11.68693654 0.4375 7.8125 C0.39431641 7.06291016 0.35113281 6.31332031 0.30664062 5.54101562 C0.20077315 3.69421625 0.0999024 1.84713166 0 0 Z " fill="#DFDFDF" transform="translate(92,24)"/>
<path d="M0 0 C0.66 0.33 1.32 0.66 2 1 C2 1.99 2 2.98 2 4 C2.66 3.67 3.32 3.34 4 3 C3 5 2 7 1 9 C0.95745644 10.99954746 0.95919217 13.00041636 1 15 C1 15.99 1 16.98 1 18 C0.67 18.33 0.34 18.66 0 19 C-0.23192865 20.51469448 -0.41215238 22.03754562 -0.5625 23.5625 C-0.64628906 24.38878906 -0.73007812 25.21507813 -0.81640625 26.06640625 C-0.87699219 26.70449219 -0.93757812 27.34257813 -1 28 C-1.33 28 -1.66 28 -2 28 C-2.05455703 25.02058002 -2.09393851 22.04218469 -2.125 19.0625 C-2.14175781 18.23169922 -2.15851563 17.40089844 -2.17578125 16.54492188 C-2.22107288 10.72494733 -1.4456695 5.6403877 0 0 Z " fill="#C3C3C3" transform="translate(2,55)"/>
<path d="M0 0 C0.66 0.33 1.32 0.66 2 1 C2 5 2 5 0.2421875 6.8515625 C-4.03011923 10.05226754 -7.69596277 12.77599141 -13 14 C-8.88380164 9.08064098 -4.59589638 4.47352044 0 0 Z " fill="#222222" transform="translate(146,52)"/>
<path d="M0 0 C-1.32 4.95 -2.64 9.9 -4 15 C-4.66 15 -5.32 15 -6 15 C-7.2063366 9.77254141 -6.75612577 5.23471686 -6 0 C-3 -1 -3 -1 0 0 Z " fill="#1A1A1A" transform="translate(55,4)"/>
<path d="M0 0 C1.13643966 3.40931897 0.86747764 4.00335456 -0.4375 7.1875 C-0.72496094 7.90292969 -1.01242188 8.61835938 -1.30859375 9.35546875 C-1.53675781 9.89816406 -1.76492187 10.44085938 -2 11 C-1.34 11 -0.68 11 0 11 C0.66 9.35 1.32 7.7 2 6 C2.99 6.33 3.98 6.66 5 7 C2.36 10.3 -0.28 13.6 -3 17 C-3.33 16.34 -3.66 15.68 -4 15 C-3.67 14.34 -3.34 13.68 -3 13 C-3.66 13 -4.32 13 -5 13 C-5.33 13.66 -5.66 14.32 -6 15 C-6 14.01 -6 13.02 -6 12 C-5.34 12 -4.68 12 -4 12 C-3.896875 11.13375 -3.79375 10.2675 -3.6875 9.375 C-2.96601586 5.83316877 -1.72876739 3.15687958 0 0 Z " fill="#E2E2E2" transform="translate(58,12)"/>
<path d="M0 0 C1.65 0.33 3.3 0.66 5 1 C4.67 1.66 4.34 2.32 4 3 C3.30406027 4.70491259 2.61762521 6.41371723 1.9375 8.125 C1.57527344 9.03507813 1.21304688 9.94515625 0.83984375 10.8828125 C0.42412109 11.93082031 0.42412109 11.93082031 0 13 C-0.99 12.34 -1.98 11.68 -3 11 C-3.61854424 6.36091821 -2.66836554 3.78018451 0 0 Z " fill="#484848" transform="translate(90,1)"/>
<path d="M0 0 C0.66 0.33 1.32 0.66 2 1 C1.360625 1.7425 0.72125 2.485 0.0625 3.25 C-2.09297199 5.75342211 -2.09297199 5.75342211 -2.5625 8.25 C-2.706875 8.8275 -2.85125 9.405 -3 10 C-3.99 10.33 -4.98 10.66 -6 11 C-7.20882096 13.00016466 -7.20882096 13.00016466 -8 15 C-8.66 14.67 -9.32 14.34 -10 14 C-9.01 12.68 -8.02 11.36 -7 10 C-7.99 9.67 -8.98 9.34 -10 9 C-6.7 6.03 -3.4 3.06 0 0 Z " fill="#6F6F6F" transform="translate(37,42)"/>
<path d="M0 0 C0.99 0 1.98 0 3 0 C2.34 4.95 1.68 9.9 1 15 C0.01 15 -0.98 15 -2 15 C-2.19392201 9.47322267 -1.7479503 5.24385089 0 0 Z " fill="#767676" transform="translate(95,11)"/>
<path d="M0 0 C0.66 0.66 1.32 1.32 2 2 C1.66302652 8.17784711 1.66302652 8.17784711 -0.5625 10.9375 C-1.036875 11.288125 -1.51125 11.63875 -2 12 C-3.98 11.34 -5.96 10.68 -8 10 C-7 7 -7 7 -5.125 5.75 C-3 5 -3 5 0 6 C0 4.02 0 2.04 0 0 Z " fill="#5A5A5A" transform="translate(52,97)"/>
<path d="M0 0 C3.3 0 6.6 0 10 0 C10 0.99 10 1.98 10 3 C8.7934375 3.433125 8.7934375 3.433125 7.5625 3.875 C4.8673532 4.73262568 4.8673532 4.73262568 4 7 C2.02 7 0.04 7 -2 7 C-1.67 5.68 -1.34 4.36 -1 3 C0.98 2.67 2.96 2.34 5 2 C3.35 1.67 1.7 1.34 0 1 C0 0.67 0 0.34 0 0 Z " fill="#2E2E2E" transform="translate(58,102)"/>
<path d="M0 0 C0.66 1.32 1.32 2.64 2 4 C0.75160501 5.105981 -0.49879234 6.20970201 -1.75 7.3125 C-2.44609375 7.92738281 -3.1421875 8.54226562 -3.859375 9.17578125 C-5.85114506 10.87314734 -7.88898915 12.45477809 -10 14 C-9.54261927 9.31808451 -7.80889606 7.36895826 -4.4375 4.1875 C-3.61121094 3.39730469 -2.78492188 2.60710938 -1.93359375 1.79296875 C-1.29550781 1.20128906 -0.65742188 0.60960937 0 0 Z " fill="#040404" transform="translate(145,47)"/>
<path d="M0 0 C1.277348 2.554696 0.96864177 4.04679773 0.6875 6.875 C0.60886719 7.73867188 0.53023438 8.60234375 0.44921875 9.4921875 C-0.00024537 12.00136979 -0.74470244 13.79682469 -2 16 C-2.99 15.67 -3.98 15.34 -5 15 C-3.97137215 9.55432314 -2.75385216 4.88182883 0 0 Z " fill="#A5A5A5" transform="translate(102,9)"/>
<path d="M0 0 C2.60025916 0.91009071 3.76626458 1.77626765 5.5 3.875 C3.19 3.875 0.88 3.875 -1.5 3.875 C-1.5 5.525 -1.5 7.175 -1.5 8.875 C-2.16 8.875 -2.82 8.875 -3.5 8.875 C-3.83 9.535 -4.16 10.195 -4.5 10.875 C-5.83264887 3.48485626 -5.83264887 3.48485626 -4.375 0.8125 C-2.5 -0.125 -2.5 -0.125 0 0 Z " fill="#898989" transform="translate(90.5,62.125)"/>
<path d="M0 0 C1.98 0.66 3.96 1.32 6 2 C5.25 4.4375 5.25 4.4375 4 7 C1.875 7.8125 1.875 7.8125 0 8 C0 7.34 0 6.68 0 6 C-0.66 5.67 -1.32 5.34 -2 5 C-1.34 3.35 -0.68 1.7 0 0 Z " fill="#141414" transform="translate(63,84)"/>
<path d="M0 0 C0 1.32 0 2.64 0 4 C0.33 4.66 0.66 5.32 1 6 C0.34 6 -0.32 6 -1 6 C-1 6.66 -1 7.32 -1 8 C-2.65 8 -4.3 8 -6 8 C-6.33 8.66 -6.66 9.32 -7 10 C-6.39169139 3.55192878 -6.39169139 3.55192878 -4.625 1.0625 C-3 0 -3 0 0 0 Z " fill="#D2D2D2" transform="translate(62,57)"/>
<path d="M0 0 C0.66 0.66 1.32 1.32 2 2 C1.34 3.32 0.68 4.64 0 6 C-0.99 5.67 -1.98 5.34 -3 5 C-3.33 4.34 -3.66 3.68 -4 3 C-6.52733235 2.34444881 -6.52733235 2.34444881 -9 2 C-9 1.34 -9 0.68 -9 0 C-5.88135455 -1.55932272 -3.33704665 -0.65549131 0 0 Z " fill="#1F1F1F" transform="translate(87,91)"/>
<path d="M0 0 C0.33 0.99 0.66 1.98 1 3 C0.67 3.33 0.34 3.66 0 4 C-0.04063832 5.66617115 -0.042721 7.33388095 0 9 C1.32 8.67 2.64 8.34 4 8 C2.1875 11 2.1875 11 0 14 C-0.99 14 -1.98 14 -3 14 C-3.33 15.65 -3.66 17.3 -4 19 C-5 17 -5 17 -4.6875 14.9375 C-4 13 -4 13 -2 12 C-2.226875 10.7625 -2.45375 9.525 -2.6875 8.25 C-3.09666898 5.13146889 -3.18326458 4.31872101 -1.5625 1.5 C-1.046875 1.005 -0.53125 0.51 0 0 Z " fill="#A2A2A2" transform="translate(40,72)"/>
<path d="M0 0 C0.66 0.33 1.32 0.66 2 1 C2.144375 1.639375 2.28875 2.27875 2.4375 2.9375 C2.86165035 5.38210855 2.86165035 5.38210855 6 7 C5.34 7.66 4.68 8.32 4 9 C0.98694043 8.61121812 -0.39685311 7.73543126 -3 6 C-2.42655063 3.13275314 -2.1385485 2.1385485 0 0 Z " fill="#E4E4E4" transform="translate(90,70)"/>
<path d="M0 0 C0.99 0 1.98 0 3 0 C1.40109514 5.19644079 -0.74138003 10.06612142 -3 15 C-3.66 15 -4.32 15 -5 15 C-4.54705135 13.24859857 -4.08741252 11.49892656 -3.625 9.75 C-3.36976562 8.77546875 -3.11453125 7.8009375 -2.8515625 6.796875 C-2.10401491 4.34162697 -1.22876183 2.24382595 0 0 Z " fill="#141414" transform="translate(61,8)"/>
<path d="M0 0 C2.97 0.495 2.97 0.495 6 1 C6 3.31 6 5.62 6 8 C5.01 8 4.02 8 3 8 C3 7.34 3 6.68 3 6 C1.68 5.34 0.36 4.68 -1 4 C-0.67 2.68 -0.34 1.36 0 0 Z " fill="#515151" transform="translate(82,44)"/>
<path d="M0 0 C6.75 0.75 6.75 0.75 9 3 C8.67 3.99 8.34 4.98 8 6 C7.67 5.01 7.34 4.02 7 3 C5.68 3.33 4.36 3.66 3 4 C3 3.34 3 2.68 3 2 C2.7525 2.639375 2.505 3.27875 2.25 3.9375 C1 6 1 6 -1.125 6.75 C-2.053125 6.87375 -2.053125 6.87375 -3 7 C-2.01 4.69 -1.02 2.38 0 0 Z " fill="#232323" transform="translate(112,11)"/>
<path d="M0 0 C0.66 0 1.32 0 2 0 C2 0.99 2 1.98 2 3 C3.32 3.33 4.64 3.66 6 4 C5.45276317 7.37462715 4.9451 9.08235 3 12 C2.34 11.67 1.68 11.34 1 11 C1.33 10.34 1.66 9.68 2 9 C1.32920026 5.90424656 1.32920026 5.90424656 0 3 C-0.99 2.67 -1.98 2.34 -3 2 C-2.01 2 -1.02 2 0 2 C0 1.34 0 0.68 0 0 Z " fill="#ABABAB" transform="translate(71,53)"/>
<path d="M0 0 C0.33 0.99 0.66 1.98 1 3 C-1.77079887 6.80984844 -5.62868145 7.06840752 -10 8 C-10 5 -10 5 -8 3 C-5.34462628 2.43479997 -2.70855287 2.26211802 0 2 C0 1.34 0 0.68 0 0 Z " fill="#131313" transform="translate(68,40)"/>
<path d="M0 0 C0.66 0.99 1.32 1.98 2 3 C2.99 3.33 3.98 3.66 5 4 C4.34 5.65 3.68 7.3 3 9 C0.525 8.01 0.525 8.01 -2 7 C-2.66 8.32 -3.32 9.64 -4 11 C-3.39301257 6.87248551 -1.96189209 3.6678852 0 0 Z " fill="#585858" transform="translate(63,1)"/>
<path d="M0 0 C0.99 0 1.98 0 3 0 C4.38671875 1.4609375 4.38671875 1.4609375 5.6875 3.375 C6.12449219 4.00148438 6.56148437 4.62796875 7.01171875 5.2734375 C8 7 8 7 8 9 C6.02 9.33 4.04 9.66 2 10 C1.855625 8.906875 1.71125 7.81375 1.5625 6.6875 C1.11711896 3.06877013 1.11711896 3.06877013 0 0 Z " fill="#868686" transform="translate(131,26)"/>
<path d="M0 0 C0.99 0 1.98 0 3 0 C3.33 2.97 3.66 5.94 4 9 C3.01 9 2.02 9 1 9 C-0.98 5.535 -0.98 5.535 -3 2 C-2.34 2 -1.68 2 -1 2 C-0.67 1.34 -0.34 0.68 0 0 Z " fill="#B6B6B6" transform="translate(42,7)"/>
<path d="M0 0 C-0.66 0.66 -1.32 1.32 -2 2 C-2 2.66 -2 3.32 -2 4 C-3.41702513 3.85769192 -4.8336096 3.71099254 -6.25 3.5625 C-7.43335938 3.44068359 -7.43335938 3.44068359 -8.640625 3.31640625 C-10.82364639 3.02365007 -12.8773182 2.57935581 -15 2 C-14.67 1.34 -14.34 0.68 -14 0 C-11.98177083 0.03255208 -9.96354167 0.06510417 -7.9453125 0.09765625 C-0.86009174 -0.25802752 -0.86009174 -0.25802752 0 0 Z " fill="#242424" transform="translate(68,146)"/>
<path d="M0 0 C3.63 1.32 7.26 2.64 11 4 C10.34 5.98 9.68 7.96 9 10 C8.67 8.68 8.34 7.36 8 6 C7.01 6.66 6.02 7.32 5 8 C5 6.68 5 5.36 5 4 C2.03 3.505 2.03 3.505 -1 3 C-0.67 2.01 -0.34 1.02 0 0 Z " fill="#B4B4B4" transform="translate(63,82)"/>
<path d="M0 0 C0.33 0 0.66 0 1 0 C1.33 6.93 1.66 13.86 2 21 C1.34 21 0.68 21 0 21 C-1.5056121 13.97381022 -0.64057643 7.10547081 0 0 Z " fill="#A4A4A4" transform="translate(18,104)"/>
<path d="M0 0 C0.33 1.32 0.66 2.64 1 4 C-2.4352048 6.29013653 -3.985331 6.17842973 -8 6 C-4.55384615 1.2 -4.55384615 1.2 -1.75 0.1875 C-1.1725 0.125625 -0.595 0.06375 0 0 Z " fill="#3B3B3B" transform="translate(39,37)"/>
<path d="M0 0 C0.33 0.99 0.66 1.98 1 3 C1.99 3 2.98 3 4 3 C3.67 3.66 3.34 4.32 3 5 C2.34 5 1.68 5 1 5 C1.33 6.65 1.66 8.3 2 10 C1.731875 9.360625 1.46375 8.72125 1.1875 8.0625 C0.11332248 5.66868314 0.11332248 5.66868314 -3 5 C-3.6875 2.9375 -3.6875 2.9375 -4 1 C-2.68 0.67 -1.36 0.34 0 0 Z " fill="#818181" transform="translate(84,106)"/>
<path d="M0 0 C1.98 0.99 3.96 1.98 6 3 C6 4.65 6 6.3 6 8 C4.35 8 2.7 8 1 8 C1.020625 7.236875 1.04125 6.47375 1.0625 5.6875 C1.12942841 2.89814214 1.12942841 2.89814214 0 0 Z M-3 3 C-2.01 3.495 -2.01 3.495 -1 4 C-1.99 4.495 -1.99 4.495 -3 5 C-3 4.34 -3 3.68 -3 3 Z " fill="#FAFAFA" transform="translate(90,68)"/>
<path d="M0 0 C0.66 0.33 1.32 0.66 2 1 C1.875 3.3125 1.875 3.3125 1 6 C-2.0625 7.8125 -2.0625 7.8125 -5 9 C-3.90931332 5.22454612 -3.0916909 2.52956528 0 0 Z " fill="#0C0C0C" transform="translate(68,7)"/>
<path d="M0 0 C3.35620271 1.38877354 5.07298728 2.91677965 7 6 C7 6.66 7 7.32 7 8 C5.125 7.6875 5.125 7.6875 3 7 C2.34 6.01 1.68 5.02 1 4 C0.01 3.34 -0.98 2.68 -2 2 C-1.34 2 -0.68 2 0 2 C0 1.34 0 0.68 0 0 Z " fill="#DBDBDB" transform="translate(83,141)"/>
<path d="M0 0 C1.3805087 3.76668598 0.59568159 6.44789173 -0.4375 10.25 C-0.72496094 11.32765625 -1.01242188 12.4053125 -1.30859375 13.515625 C-1.53675781 14.33546875 -1.76492187 15.1553125 -2 16 C-2.66 16 -3.32 16 -4 16 C-3.71515154 14.26969709 -3.42180062 12.54079286 -3.125 10.8125 C-2.96257812 9.84957031 -2.80015625 8.88664062 -2.6328125 7.89453125 C-2.01960483 5.08967396 -1.14333657 2.62775253 0 0 Z " fill="#E6E6E6" transform="translate(129,75)"/>
<path d="M0 0 C0.66 0.99 1.32 1.98 2 3 C0.19511787 5.86733048 -1.6317567 8.56775013 -4 11 C-7.375 11.5 -7.375 11.5 -10 11 C-10 10.34 -10 9.68 -10 9 C-9.2575 8.7525 -8.515 8.505 -7.75 8.25 C-4.75159001 6.88708637 -3.12040455 5.49904822 -1 3 C-0.67 2.01 -0.34 1.02 0 0 Z " fill="#2B2B2B" transform="translate(35,48)"/>
<path d="M0 0 C0.66 0.33 1.32 0.66 2 1 C1.24266726 2.3410477 0.46867264 3.67269781 -0.3125 5 C-0.74175781 5.7425 -1.17101563 6.485 -1.61328125 7.25 C-2.07089844 7.8275 -2.52851562 8.405 -3 9 C-5 9 -7 9 -9 9 C-6.03 6.03 -3.06 3.06 0 0 Z " fill="#727272" transform="translate(48,32)"/>
<path d="M0 0 C0.66 0.33 1.32 0.66 2 1 C2 1.33 2 1.66 2 2 C3.65 2.33 5.3 2.66 7 3 C7 3.33 7 3.66 7 4 C3.04 4.66 -0.92 5.32 -5 6 C-4 2 -4 2 -2.0625 0.6875 C-1.381875 0.460625 -0.70125 0.23375 0 0 Z " fill="#D7D7D7" transform="translate(72,139)"/>
<path d="M0 0 C-2.5652659 1.71017726 -4.87960965 2.90417811 -7.6875 4.125 C-8.49574219 4.47820312 -9.30398437 4.83140625 -10.13671875 5.1953125 C-10.75160156 5.46085938 -11.36648437 5.72640625 -12 6 C-12.66 5.34 -13.32 4.68 -14 4 C-12.42466914 3.13116294 -10.83935491 2.28040932 -9.25 1.4375 C-8.36828125 0.96183594 -7.4865625 0.48617187 -6.578125 -0.00390625 C-3.79298812 -1.07998186 -2.73019786 -1.06528748 0 0 Z " fill="#D1D1D1" transform="translate(90,133)"/>
<path d="M0 0 C0.33 1.32 0.66 2.64 1 4 C-0.65 4.33 -2.3 4.66 -4 5 C-4 5.66 -4 6.32 -4 7 C-5.98 7 -7.96 7 -10 7 C-6.76478258 4.51137122 -3.40739705 2.24578442 0 0 Z " fill="#DADADA" transform="translate(143,103)"/>
<path d="M0 0 C0.66 0.33 1.32 0.66 2 1 C-1.66666667 4.66666667 -5.33333333 8.33333333 -9 12 C-9.66 11.67 -10.32 11.34 -11 11 C-10.67 10.01 -10.34 9.02 -10 8 C-9.34 8 -8.68 8 -8 8 C-6.57607884 6.71904281 -5.20766179 5.37565088 -3.875 4 C-3.15054688 3.2575 -2.42609375 2.515 -1.6796875 1.75 C-0.84824219 0.88375 -0.84824219 0.88375 0 0 Z " fill="#B0B0B0" transform="translate(145,51)"/>
<path d="M0 0 C0.99 0.33 1.98 0.66 3 1 C4.1875 3.5625 4.1875 3.5625 5 6 C3.625 7.5 3.625 7.5 2 9 C1.34 9 0.68 9 0 9 C0 6.03 0 3.06 0 0 Z " fill="#F4F4F4" transform="translate(134,40)"/>
<path d="M0 0 C0.33 1.32 0.66 2.64 1 4 C2.32 3.01 3.64 2.02 5 1 C8.125 7.625 8.125 7.625 7 11 C5.62437146 9.71034824 4.29233607 8.37310707 3 7 C3 6.34 3 5.68 3 5 C2.01 5 1.02 5 0 5 C-0.33 4.01 -0.66 3.02 -1 2 C-0.67 1.34 -0.34 0.68 0 0 Z " fill="#E3E3E3" transform="translate(82,7)"/>
<path d="M0 0 C1.45922693 0.11409593 2.91740598 0.24165544 4.375 0.375 C5.59316406 0.47941406 5.59316406 0.47941406 6.8359375 0.5859375 C9 1 9 1 11 3 C6.99799622 4.60080151 3.95443764 3.29279692 0 2 C0 1.34 0 0.68 0 0 Z " fill="#BDBDBD" transform="translate(3,96)"/>
<path d="M0 0 C0.66 0.99 1.32 1.98 2 3 C-0.31 5.31 -2.62 7.62 -5 10 C-5.99 9.67 -6.98 9.34 -8 9 C-7.50628906 8.51789062 -7.01257813 8.03578125 -6.50390625 7.5390625 C-5.86324219 6.90742188 -5.22257812 6.27578125 -4.5625 5.625 C-3.92441406 4.99851562 -3.28632812 4.37203125 -2.62890625 3.7265625 C-0.92117824 2.08276939 -0.92117824 2.08276939 0 0 Z " fill="#C4C4C4" transform="translate(106,19)"/>
<path d="M0 0 C0.99 0 1.98 0 3 0 C2.54803755 1.60597325 2.08817673 3.20972508 1.625 4.8125 C1.36976562 5.70582031 1.11453125 6.59914063 0.8515625 7.51953125 C0 10 0 10 -2 13 C-1.85915204 11.20793453 -1.71216299 9.41635083 -1.5625 7.625 C-1.48128906 6.62726562 -1.40007812 5.62953125 -1.31640625 4.6015625 C-1 2 -1 2 0 0 Z " fill="#161616" transform="translate(98,11)"/>
<path d="M0 0 C0 0.99 0 1.98 0 3 C-5.34883721 8 -5.34883721 8 -8 8 C-4.875 1.75 -4.875 1.75 0 0 Z " fill="#6A6A6A" transform="translate(133,92)"/>
<path d="M0 0 C0.99 0.33 1.98 0.66 3 1 C1.66511872 4.59391114 0.03977277 7.75490696 -2 11 C-3 9 -3 9 -2.0625 5.875 C-1.711875 4.92625 -1.36125 3.9775 -1 3 C-1.66 2.67 -2.32 2.34 -3 2 C-2.01 2 -1.02 2 0 2 C0 1.34 0 0.68 0 0 Z " fill="#6F6F6F" transform="translate(133,76)"/>
<path d="M0 0 C0.66 0.33 1.32 0.66 2 1 C1.75 3.375 1.75 3.375 1 6 C-1.0625 7.3125 -1.0625 7.3125 -3 8 C-2.25 2.25 -2.25 2.25 0 0 Z " fill="#454545" transform="translate(140,37)"/>
<path d="M0 0 C2.5 1.125 2.5 1.125 5 3 C5.3125 6.1875 5.3125 6.1875 5 9 C4.01 9 3.02 9 2 9 C2 8.01 2 7.02 2 6 C1.34 5.67 0.68 5.34 0 5 C0 3.33333333 0 1.66666667 0 0 Z " fill="#D5D5D5" transform="translate(71,103)"/>
<path d="M0 0 C0.33 0 0.66 0 1 0 C1 2.31 1 4.62 1 7 C2.32 6.34 3.64 5.68 5 5 C5 6.32 5 7.64 5 9 C2 10 2 10 -1 10 C-0.67 6.7 -0.34 3.4 0 0 Z " fill="#8B8B8B" transform="translate(133,42)"/>
<path d="M0 0 C1.67542976 0.28604898 3.34385343 0.61781233 5 1 C4.34 3.31 3.68 5.62 3 8 C2.34 7.34 1.68 6.68 1 6 C1 4.68 1 3.36 1 2 C0.34 1.67 -0.32 1.34 -1 1 C-0.67 0.67 -0.34 0.34 0 0 Z " fill="#141414" transform="translate(44,5)"/>
<path d="M0 0 C1.53445094 3.06890187 0.54984289 5.70094266 0 9 C-1.32 8.34 -2.64 7.68 -4 7 C-2.92598892 4.08482708 -2.22189824 2.22189824 0 0 Z " fill="#272727" transform="translate(71,87)"/>
<path d="M0 0 C0.66 0 1.32 0 2 0 C2 0.99 2 1.98 2 3 C3.98 3.66 5.96 4.32 8 5 C7.67 5.66 7.34 6.32 7 7 C6.401875 6.835 5.80375 6.67 5.1875 6.5 C2.88655664 5.8885876 2.88655664 5.8885876 0 6 C-1 3 -1 3 0 0 Z " fill="#A0A0A0" transform="translate(51,71)"/>
<path d="M0 0 C0.66 0.99 1.32 1.98 2 3 C0.625 5.5 0.625 5.5 -1 8 C-1.66 8 -2.32 8 -3 8 C-3.33 6.35 -3.66 4.7 -4 3 C-3.01 3 -2.02 3 -1 3 C-0.67 2.01 -0.34 1.02 0 0 Z " fill="#171717" transform="translate(86,3)"/>
<path d="M0 0 C0.99 0.66 1.98 1.32 3 2 C1.55746343 5.36591866 -0.33264727 7.51047079 -3 10 C-2.01 6.7 -1.02 3.4 0 0 Z " fill="#393939" transform="translate(98,22)"/>
<path d="M0 0 C2.3431213 0.25561323 4.67843403 0.59270772 7 1 C7.33 1.66 7.66 2.32 8 3 C6.88625 3.12375 5.7725 3.2475 4.625 3.375 C0.96896323 3.6465813 0.96896323 3.6465813 -1 6 C-0.67 4.02 -0.34 2.04 0 0 Z " fill="#DADADA" transform="translate(56,102)"/>
<path d="M0 0 C2.3125 0.1875 2.3125 0.1875 4 1 C4 2.98 4 4.96 4 7 C3.34 5.68 2.68 4.36 2 3 C1.21625 3.515625 0.4325 4.03125 -0.375 4.5625 C-1.24125 5.036875 -2.1075 5.51125 -3 6 C-3.66 5.67 -4.32 5.34 -5 5 C-2.75 2.4375 -2.75 2.4375 0 0 Z " fill="#6C6C6C" transform="translate(37,93)"/>
<path d="M0 0 C-1.24976756 3.65316671 -1.67098753 4.78065836 -5 7 C-5 6.34 -5 5.68 -5 5 C-5.66 4.67 -6.32 4.34 -7 4 C-5.53303752 1.06607504 -3.25996861 0 0 0 Z " fill="#161616" transform="translate(57,90)"/>
<path d="M0 0 C0.66 1.32 1.32 2.64 2 4 C2.66 4 3.32 4 4 4 C2.70700306 6.88437779 1.34058637 8.87219421 -1 11 C-0.835 9.9275 -0.67 8.855 -0.5 7.75 C0.08810915 3.96971248 0.08810915 3.96971248 0 0 Z " fill="#D0D0D0" transform="translate(97,81)"/>
<path d="M0 0 C0.99 0 1.98 0 3 0 C2.125 5.75 2.125 5.75 1 8 C0.34 8 -0.32 8 -1 8 C-0.67 5.36 -0.34 2.72 0 0 Z " fill="#222222" transform="translate(129,79)"/>
<path d="M0 0 C0.66 1.32 1.32 2.64 2 4 C1.01 4 0.02 4 -1 4 C-1.33 6.97 -1.66 9.94 -2 13 C-2.33 13 -2.66 13 -3 13 C-3.17791204 8.46324303 -3.0461125 5.092225 -1 1 C-0.67 0.67 -0.34 0.34 0 0 Z " fill="#141414" transform="translate(3,51)"/>
<path d="M0 0 C1.32 0.33 2.64 0.66 4 1 C0.535 3.97 0.535 3.97 -3 7 C-2.25 2.25 -2.25 2.25 0 0 Z " fill="#121212" transform="translate(138,54)"/>
<path d="M0 0 C0.66 0 1.32 0 2 0 C2 1.32 2 2.64 2 4 C-2.07142857 7 -2.07142857 7 -5 7 C-4.34 5.68 -3.68 4.36 -3 3 C-2.34 3 -1.68 3 -1 3 C-0.67 2.01 -0.34 1.02 0 0 Z " fill="#0D0D0D" transform="translate(49,28)"/>
<path d="M0 0 C1.6415049 3.2830098 0.51888624 6.42545033 0 10 C-1.32 9.67 -2.64 9.34 -4 9 C-2.94124926 5.59687262 -1.99097846 2.98646769 0 0 Z " fill="#9D9D9D" transform="translate(64,9)"/>
<path d="M0 0 C0.66 0 1.32 0 2 0 C0.52307692 4.67692308 0.52307692 4.67692308 -2.125 6.3125 C-3.053125 6.6528125 -3.053125 6.6528125 -4 7 C-4.33 6.01 -4.66 5.02 -5 4 C-4.01 3.67 -3.02 3.34 -2 3 C-1.34 2.01 -0.68 1.02 0 0 Z " fill="#6F6F6F" transform="translate(83,99)"/>
<path d="M0 0 C0 3.39593478 -0.52165948 4.06619881 -2.5 6.6875 C-2.9640625 7.31011719 -3.428125 7.93273437 -3.90625 8.57421875 C-4.2671875 9.04472656 -4.628125 9.51523438 -5 10 C-5.66 9.67 -6.32 9.34 -7 9 C-6.40844669 7.68176698 -5.80128537 6.37052949 -5.1875 5.0625 C-4.85105469 4.33160156 -4.51460938 3.60070312 -4.16796875 2.84765625 C-3 1 -3 1 0 0 Z " fill="#B3B3B3" transform="translate(95,92)"/>
<path d="M0 0 C-0.66 1.32 -1.32 2.64 -2 4 C-3.65 3.67 -5.3 3.34 -7 3 C-7 2.34 -7 1.68 -7 1 C-4.53721199 -0.231394 -2.7204945 -0.07159196 0 0 Z " fill="#6C6C6C" transform="translate(85,90)"/>
<path d="M0 0 C0.66 0.33 1.32 0.66 2 1 C2 1.99 2 2.98 2 4 C0.1875 5.0625 0.1875 5.0625 -2 6 C-2.99 5.67 -3.98 5.34 -5 5 C-3.35 3.35 -1.7 1.7 0 0 Z " fill="#D6D6D6" transform="translate(146,57)"/>
<path d="M0 0 C0.66 0.33 1.32 0.66 2 1 C2 2.32 2 3.64 2 5 C0.68 5.33 -0.64 5.66 -2 6 C-2 2 -2 2 0 0 Z " fill="#0A0A0A" transform="translate(146,52)"/>
<path d="M0 0 C1.485 0.99 1.485 0.99 3 2 C3.66 1.34 4.32 0.68 5 0 C4.67 1.98 4.34 3.96 4 6 C3.34 6 2.68 6 2 6 C1.67 6.66 1.34 7.32 1 8 C0.67 5.36 0.34 2.72 0 0 Z " fill="#F2F2F2" transform="translate(92,24)"/>
<path d="M0 0 C0.66 0 1.32 0 2 0 C2.33 2.97 2.66 5.94 3 9 C2.67 7.68 2.34 6.36 2 5 C1.01 4.67 0.02 4.34 -1 4 C-0.67 2.68 -0.34 1.36 0 0 Z " fill="#DBDBDB" transform="translate(94,66)"/>
<path d="M0 0 C0.66 0.33 1.32 0.66 2 1 C2.33 1.99 2.66 2.98 3 4 C0 5 0 5 -2.1875 4.0625 C-2.785625 3.711875 -3.38375 3.36125 -4 3 C-2.68 2.01 -1.36 1.02 0 0 Z " fill="#232323" transform="translate(82,136)"/>
<path d="M0 0 C1.9375 0.3125 1.9375 0.3125 4 1 C4.33 1.99 4.66 2.98 5 4 C3.02 4 1.04 4 -1 4 C-0.67 2.68 -0.34 1.36 0 0 Z " fill="#686868" transform="translate(57,105)"/>
<path d="M0 0 C-0.33 0.99 -0.66 1.98 -1 3 C-3.5625 4.1875 -3.5625 4.1875 -6 5 C-5.625 3.0625 -5.625 3.0625 -5 1 C-3 0 -3 0 0 0 Z " fill="#E9E9E9" transform="translate(110,122)"/>
<path d="M0 0 C1.98 0.99 1.98 0.99 4 2 C4 3.98 4 5.96 4 8 C3.34 8 2.68 8 2 8 C1.855625 7.236875 1.71125 6.47375 1.5625 5.6875 C1.0367406 2.91827092 1.0367406 2.91827092 0 0 Z " fill="#BABABA" transform="translate(93,113)"/>
<path d="M0 0 C0.66 1.32 1.32 2.64 2 4 C1.34 4.66 0.68 5.32 0 6 C-1.32 5.34 -2.64 4.68 -4 4 C-2.68 2.68 -1.36 1.36 0 0 Z " fill="#FAFAFA" transform="translate(59,91)"/>
<path d="M0 0 C0.33 0.66 0.66 1.32 1 2 C1.66 2 2.32 2 3 2 C3 2.99 3 3.98 3 5 C1.35 5.33 -0.3 5.66 -2 6 C-1.34 4.02 -0.68 2.04 0 0 Z " fill="#131313" transform="translate(73,88)"/>
<path d="M0 0 C2.475 0.495 2.475 0.495 5 1 C4.67 2.32 4.34 3.64 4 5 C2.68 4.34 1.36 3.68 0 3 C0 2.01 0 1.02 0 0 Z " fill="#DCDCDC" transform="translate(135,34)"/>
</svg>
